<mxfile host="65bd71144e" pages="8">
    <diagram id="GncfomPh3vBUqq8POEpJ" name="Overview">
        <mxGraphModel dx="936" dy="717" grid="1" gridSize="10" guides="1" tooltips="1" connect="1" arrows="1" fold="1" page="1" pageScale="1" pageWidth="827" pageHeight="1169" math="0" shadow="0">
            <root>
                <mxCell id="0"/>
                <mxCell id="1" parent="0"/>
                <mxCell id="xt7fyGl4gOL2LQDRJJiP-16" style="edgeStyle=orthogonalEdgeStyle;rounded=0;orthogonalLoop=1;jettySize=auto;html=1;exitX=0.5;exitY=0;exitDx=0;exitDy=0;entryX=0;entryY=0.5;entryDx=0;entryDy=0;endArrow=open;endFill=0;" parent="1" source="xt7fyGl4gOL2LQDRJJiP-1" target="xt7fyGl4gOL2LQDRJJiP-13" edge="1">
                    <mxGeometry relative="1" as="geometry"/>
                </mxCell>
                <mxCell id="xt7fyGl4gOL2LQDRJJiP-1" value="KV" style="rounded=0;whiteSpace=wrap;html=1;strokeWidth=2;fontSize=17;dashed=1;fillColor=#ffe6cc;strokeColor=#d79b00;" parent="1" vertex="1">
                    <mxGeometry x="274" y="350" width="100" height="48" as="geometry"/>
                </mxCell>
                <mxCell id="xt7fyGl4gOL2LQDRJJiP-6" style="edgeStyle=orthogonalEdgeStyle;rounded=0;orthogonalLoop=1;jettySize=auto;html=1;exitX=0.5;exitY=0;exitDx=0;exitDy=0;entryX=0.5;entryY=1;entryDx=0;entryDy=0;endArrow=open;endFill=0;" parent="1" source="xt7fyGl4gOL2LQDRJJiP-2" target="xt7fyGl4gOL2LQDRJJiP-4" edge="1">
                    <mxGeometry relative="1" as="geometry"/>
                </mxCell>
                <mxCell id="xt7fyGl4gOL2LQDRJJiP-2" value="ReadView" style="rounded=0;whiteSpace=wrap;html=1;strokeWidth=2;fontSize=17;dashed=1;fillColor=#ffe6cc;strokeColor=#d79b00;" parent="1" vertex="1">
                    <mxGeometry x="110" y="570" width="100" height="48" as="geometry"/>
                </mxCell>
                <mxCell id="xt7fyGl4gOL2LQDRJJiP-8" style="edgeStyle=orthogonalEdgeStyle;rounded=0;orthogonalLoop=1;jettySize=auto;html=1;exitX=0.5;exitY=0;exitDx=0;exitDy=0;entryX=0.5;entryY=1;entryDx=0;entryDy=0;endArrow=open;endFill=0;" parent="1" source="xt7fyGl4gOL2LQDRJJiP-3" target="xt7fyGl4gOL2LQDRJJiP-5" edge="1">
                    <mxGeometry relative="1" as="geometry"/>
                </mxCell>
                <mxCell id="xt7fyGl4gOL2LQDRJJiP-3" value="WriteView" style="rounded=0;whiteSpace=wrap;html=1;strokeWidth=2;fontSize=17;dashed=1;fillColor=#ffe6cc;strokeColor=#d79b00;" parent="1" vertex="1">
                    <mxGeometry x="420" y="570" width="100" height="48" as="geometry"/>
                </mxCell>
                <mxCell id="xt7fyGl4gOL2LQDRJJiP-7" style="edgeStyle=orthogonalEdgeStyle;rounded=0;orthogonalLoop=1;jettySize=auto;html=1;exitX=1;exitY=0.5;exitDx=0;exitDy=0;entryX=0;entryY=0.5;entryDx=0;entryDy=0;endArrow=open;endFill=0;" parent="1" source="xt7fyGl4gOL2LQDRJJiP-4" target="xt7fyGl4gOL2LQDRJJiP-5" edge="1">
                    <mxGeometry relative="1" as="geometry"/>
                </mxCell>
                <mxCell id="xt7fyGl4gOL2LQDRJJiP-9" style="edgeStyle=orthogonalEdgeStyle;rounded=0;orthogonalLoop=1;jettySize=auto;html=1;exitX=0.5;exitY=0;exitDx=0;exitDy=0;entryX=0;entryY=0.5;entryDx=0;entryDy=0;endArrow=open;endFill=0;" parent="1" source="xt7fyGl4gOL2LQDRJJiP-4" target="xt7fyGl4gOL2LQDRJJiP-1" edge="1">
                    <mxGeometry relative="1" as="geometry"/>
                </mxCell>
                <mxCell id="xt7fyGl4gOL2LQDRJJiP-4" value="TxnRead" style="rounded=0;whiteSpace=wrap;html=1;strokeWidth=2;fontSize=17;dashed=1;fillColor=#ffe6cc;strokeColor=#d79b00;" parent="1" vertex="1">
                    <mxGeometry x="110" y="460" width="100" height="48" as="geometry"/>
                </mxCell>
                <mxCell id="xt7fyGl4gOL2LQDRJJiP-10" style="edgeStyle=orthogonalEdgeStyle;rounded=0;orthogonalLoop=1;jettySize=auto;html=1;exitX=0.5;exitY=0;exitDx=0;exitDy=0;entryX=1;entryY=0.5;entryDx=0;entryDy=0;endArrow=open;endFill=0;" parent="1" source="xt7fyGl4gOL2LQDRJJiP-5" target="xt7fyGl4gOL2LQDRJJiP-1" edge="1">
                    <mxGeometry relative="1" as="geometry"/>
                </mxCell>
                <mxCell id="xt7fyGl4gOL2LQDRJJiP-5" value="TxnWrite" style="rounded=0;whiteSpace=wrap;html=1;strokeWidth=2;fontSize=17;dashed=1;fillColor=#ffe6cc;strokeColor=#d79b00;" parent="1" vertex="1">
                    <mxGeometry x="420" y="460" width="100" height="48" as="geometry"/>
                </mxCell>
                <mxCell id="xt7fyGl4gOL2LQDRJJiP-17" style="edgeStyle=orthogonalEdgeStyle;rounded=0;orthogonalLoop=1;jettySize=auto;html=1;exitX=0.5;exitY=0;exitDx=0;exitDy=0;entryX=1;entryY=0.5;entryDx=0;entryDy=0;endArrow=open;endFill=0;" parent="1" source="xt7fyGl4gOL2LQDRJJiP-11" target="xt7fyGl4gOL2LQDRJJiP-13" edge="1">
                    <mxGeometry relative="1" as="geometry"/>
                </mxCell>
                <mxCell id="shfZaDqLLOdZ8czMn-wy-5" style="edgeStyle=orthogonalEdgeStyle;rounded=0;orthogonalLoop=1;jettySize=auto;html=1;exitX=0.5;exitY=1;exitDx=0;exitDy=0;entryX=0.5;entryY=0;entryDx=0;entryDy=0;endArrow=open;endFill=0;dashed=1;" parent="1" source="xt7fyGl4gOL2LQDRJJiP-11" target="shfZaDqLLOdZ8czMn-wy-3" edge="1">
                    <mxGeometry relative="1" as="geometry"/>
                </mxCell>
                <mxCell id="xt7fyGl4gOL2LQDRJJiP-11" value="Watchable" style="rounded=0;whiteSpace=wrap;html=1;strokeWidth=2;fontSize=17;dashed=1;fillColor=#ffe6cc;strokeColor=#d79b00;" parent="1" vertex="1">
                    <mxGeometry x="630" y="350" width="100" height="48" as="geometry"/>
                </mxCell>
                <mxCell id="xt7fyGl4gOL2LQDRJJiP-15" style="edgeStyle=orthogonalEdgeStyle;rounded=0;orthogonalLoop=1;jettySize=auto;html=1;exitX=0.5;exitY=0;exitDx=0;exitDy=0;entryX=0.5;entryY=1;entryDx=0;entryDy=0;endArrow=open;endFill=0;" parent="1" source="xt7fyGl4gOL2LQDRJJiP-13" target="xt7fyGl4gOL2LQDRJJiP-14" edge="1">
                    <mxGeometry relative="1" as="geometry"/>
                </mxCell>
                <mxCell id="xt7fyGl4gOL2LQDRJJiP-13" value="WatchableKV" style="rounded=0;whiteSpace=wrap;html=1;strokeWidth=2;fontSize=17;dashed=1;fillColor=#ffe6cc;strokeColor=#d79b00;" parent="1" vertex="1">
                    <mxGeometry x="430" y="240" width="130" height="48" as="geometry"/>
                </mxCell>
                <mxCell id="xt7fyGl4gOL2LQDRJJiP-14" value="ConsistentWatchableKV" style="rounded=0;whiteSpace=wrap;html=1;strokeWidth=2;fontSize=17;dashed=1;fillColor=#ffe6cc;strokeColor=#d79b00;" parent="1" vertex="1">
                    <mxGeometry x="390" y="130" width="210" height="48" as="geometry"/>
                </mxCell>
                <mxCell id="shfZaDqLLOdZ8czMn-wy-2" value="WatchStream" style="rounded=0;whiteSpace=wrap;html=1;strokeWidth=2;fontSize=17;dashed=1;fillColor=#ffe6cc;strokeColor=#d79b00;" parent="1" vertex="1">
                    <mxGeometry x="615" y="570" width="130" height="48" as="geometry"/>
                </mxCell>
                <mxCell id="shfZaDqLLOdZ8czMn-wy-6" style="edgeStyle=orthogonalEdgeStyle;rounded=0;orthogonalLoop=1;jettySize=auto;html=1;exitX=0.5;exitY=1;exitDx=0;exitDy=0;endArrow=open;endFill=0;dashed=1;" parent="1" source="shfZaDqLLOdZ8czMn-wy-3" target="shfZaDqLLOdZ8czMn-wy-2" edge="1">
                    <mxGeometry relative="1" as="geometry"/>
                </mxCell>
                <mxCell id="shfZaDqLLOdZ8czMn-wy-3" value="NewWatchStream" style="rounded=0;whiteSpace=wrap;html=1;strokeWidth=2;fontSize=17;sketch=0;shadow=1;fillColor=#fff2cc;strokeColor=#d6b656;" parent="1" vertex="1">
                    <mxGeometry x="600" y="460" width="160" height="48" as="geometry"/>
                </mxCell>
            </root>
        </mxGraphModel>
    </diagram>
    <diagram id="pWjZCL1W94NZ0XN1CFPH" name="index">
        <mxGraphModel dx="936" dy="717" grid="1" gridSize="10" guides="1" tooltips="1" connect="1" arrows="1" fold="1" page="1" pageScale="1" pageWidth="827" pageHeight="1169" math="0" shadow="0">
            <root>
                <mxCell id="6PgwV7A99ML6FefbPtYO-0"/>
                <mxCell id="6PgwV7A99ML6FefbPtYO-1" parent="6PgwV7A99ML6FefbPtYO-0"/>
                <mxCell id="QDJBu_Fl4C7gK2QnvCQO-0" value="Index" style="rounded=0;whiteSpace=wrap;html=1;strokeWidth=2;fontSize=17;dashed=1;fillColor=#fff2cc;strokeColor=#d6b656;" parent="6PgwV7A99ML6FefbPtYO-1" vertex="1">
                    <mxGeometry x="549" y="160" width="100" height="48" as="geometry"/>
                </mxCell>
                <mxCell id="QDJBu_Fl4C7gK2QnvCQO-78" style="edgeStyle=orthogonalEdgeStyle;rounded=0;orthogonalLoop=1;jettySize=auto;html=1;exitX=1;exitY=0.5;exitDx=0;exitDy=0;entryX=0;entryY=0.5;entryDx=0;entryDy=0;dashed=1;endArrow=block;endFill=0;fontSize=12;" parent="6PgwV7A99ML6FefbPtYO-1" source="QDJBu_Fl4C7gK2QnvCQO-1" target="QDJBu_Fl4C7gK2QnvCQO-0" edge="1">
                    <mxGeometry relative="1" as="geometry"/>
                </mxCell>
                <mxCell id="QDJBu_Fl4C7gK2QnvCQO-1" value="treeIndex" style="rounded=0;whiteSpace=wrap;html=1;strokeWidth=2;fontSize=17;fillColor=#ffe6cc;strokeColor=#d79b00;" parent="6PgwV7A99ML6FefbPtYO-1" vertex="1">
                    <mxGeometry x="359" y="160" width="100" height="48" as="geometry"/>
                </mxCell>
                <mxCell id="QDJBu_Fl4C7gK2QnvCQO-3" value="" style="edgeStyle=orthogonalEdgeStyle;rounded=0;orthogonalLoop=1;jettySize=auto;html=1;endArrow=open;endFill=0;" parent="6PgwV7A99ML6FefbPtYO-1" source="QDJBu_Fl4C7gK2QnvCQO-2" target="QDJBu_Fl4C7gK2QnvCQO-1" edge="1">
                    <mxGeometry relative="1" as="geometry"/>
                </mxCell>
                <mxCell id="QDJBu_Fl4C7gK2QnvCQO-76" style="edgeStyle=orthogonalEdgeStyle;rounded=0;orthogonalLoop=1;jettySize=auto;html=1;exitX=0.5;exitY=1;exitDx=0;exitDy=0;entryX=0.5;entryY=0;entryDx=0;entryDy=0;endArrow=box;endFill=0;fontSize=17;dashed=1;" parent="6PgwV7A99ML6FefbPtYO-1" source="QDJBu_Fl4C7gK2QnvCQO-2" target="QDJBu_Fl4C7gK2QnvCQO-6" edge="1">
                    <mxGeometry relative="1" as="geometry"/>
                </mxCell>
                <mxCell id="QDJBu_Fl4C7gK2QnvCQO-2" value="btree" style="rounded=0;whiteSpace=wrap;html=1;strokeWidth=2;fontSize=17;fillColor=#d5e8d4;strokeColor=#82b366;" parent="6PgwV7A99ML6FefbPtYO-1" vertex="1">
                    <mxGeometry x="359" y="285" width="100" height="48" as="geometry"/>
                </mxCell>
                <mxCell id="QDJBu_Fl4C7gK2QnvCQO-5" value="32" style="text;html=1;align=center;verticalAlign=middle;resizable=0;points=[];autosize=1;" parent="6PgwV7A99ML6FefbPtYO-1" vertex="1">
                    <mxGeometry x="359" y="285" width="30" height="20" as="geometry"/>
                </mxCell>
                <mxCell id="QDJBu_Fl4C7gK2QnvCQO-6" value="keyIndex" style="rounded=0;whiteSpace=wrap;html=1;strokeWidth=2;fontSize=17;fillColor=#dae8fc;strokeColor=#6c8ebf;" parent="6PgwV7A99ML6FefbPtYO-1" vertex="1">
                    <mxGeometry x="359" y="400" width="100" height="48" as="geometry"/>
                </mxCell>
                <mxCell id="QDJBu_Fl4C7gK2QnvCQO-9" style="edgeStyle=orthogonalEdgeStyle;rounded=0;orthogonalLoop=1;jettySize=auto;html=1;exitX=1;exitY=0.5;exitDx=0;exitDy=0;entryX=0;entryY=0.5;entryDx=0;entryDy=0;endArrow=open;endFill=0;" parent="6PgwV7A99ML6FefbPtYO-1" source="QDJBu_Fl4C7gK2QnvCQO-8" target="QDJBu_Fl4C7gK2QnvCQO-6" edge="1">
                    <mxGeometry relative="1" as="geometry"/>
                </mxCell>
                <mxCell id="QDJBu_Fl4C7gK2QnvCQO-8" value="key" style="rounded=0;whiteSpace=wrap;html=1;strokeWidth=2;fontSize=17;fillColor=#dae8fc;strokeColor=#6c8ebf;" parent="6PgwV7A99ML6FefbPtYO-1" vertex="1">
                    <mxGeometry x="179" y="400" width="100" height="48" as="geometry"/>
                </mxCell>
                <mxCell id="QDJBu_Fl4C7gK2QnvCQO-11" value="" style="rounded=0;whiteSpace=wrap;html=1;strokeWidth=2;fontSize=17;fillColor=#d5e8d4;strokeColor=#82b366;" parent="6PgwV7A99ML6FefbPtYO-1" vertex="1">
                    <mxGeometry x="329" y="520" width="40" height="48" as="geometry"/>
                </mxCell>
                <mxCell id="QDJBu_Fl4C7gK2QnvCQO-15" style="edgeStyle=orthogonalEdgeStyle;rounded=0;orthogonalLoop=1;jettySize=auto;html=1;exitX=1;exitY=0;exitDx=0;exitDy=0;entryX=0.5;entryY=1;entryDx=0;entryDy=0;endArrow=open;endFill=0;" parent="6PgwV7A99ML6FefbPtYO-1" source="QDJBu_Fl4C7gK2QnvCQO-12" target="QDJBu_Fl4C7gK2QnvCQO-6" edge="1">
                    <mxGeometry relative="1" as="geometry"/>
                </mxCell>
                <mxCell id="QDJBu_Fl4C7gK2QnvCQO-12" value="" style="rounded=0;whiteSpace=wrap;html=1;strokeWidth=2;fontSize=17;fillColor=#d5e8d4;strokeColor=#82b366;" parent="6PgwV7A99ML6FefbPtYO-1" vertex="1">
                    <mxGeometry x="369" y="520" width="40" height="48" as="geometry"/>
                </mxCell>
                <mxCell id="QDJBu_Fl4C7gK2QnvCQO-13" value="" style="rounded=0;whiteSpace=wrap;html=1;strokeWidth=2;fontSize=17;fillColor=#d5e8d4;strokeColor=#82b366;" parent="6PgwV7A99ML6FefbPtYO-1" vertex="1">
                    <mxGeometry x="409" y="520" width="40" height="48" as="geometry"/>
                </mxCell>
                <mxCell id="QDJBu_Fl4C7gK2QnvCQO-19" style="edgeStyle=orthogonalEdgeStyle;rounded=0;orthogonalLoop=1;jettySize=auto;html=1;exitX=0.5;exitY=1;exitDx=0;exitDy=0;entryX=0.5;entryY=0;entryDx=0;entryDy=0;endArrow=box;endFill=0;dashed=1;" parent="6PgwV7A99ML6FefbPtYO-1" source="QDJBu_Fl4C7gK2QnvCQO-14" target="QDJBu_Fl4C7gK2QnvCQO-16" edge="1">
                    <mxGeometry relative="1" as="geometry"/>
                </mxCell>
                <mxCell id="QDJBu_Fl4C7gK2QnvCQO-14" value="" style="rounded=0;whiteSpace=wrap;html=1;strokeWidth=2;fontSize=17;fillColor=#d5e8d4;strokeColor=#82b366;" parent="6PgwV7A99ML6FefbPtYO-1" vertex="1">
                    <mxGeometry x="449" y="520" width="40" height="48" as="geometry"/>
                </mxCell>
                <mxCell id="QDJBu_Fl4C7gK2QnvCQO-16" value="generation" style="rounded=0;whiteSpace=wrap;html=1;strokeWidth=2;fontSize=17;fillColor=#ffe6cc;strokeColor=#d79b00;" parent="6PgwV7A99ML6FefbPtYO-1" vertex="1">
                    <mxGeometry x="419" y="640" width="100" height="48" as="geometry"/>
                </mxCell>
                <mxCell id="QDJBu_Fl4C7gK2QnvCQO-20" style="edgeStyle=orthogonalEdgeStyle;rounded=0;orthogonalLoop=1;jettySize=auto;html=1;exitX=0;exitY=0.5;exitDx=0;exitDy=0;entryX=1;entryY=0.5;entryDx=0;entryDy=0;endArrow=open;endFill=0;" parent="6PgwV7A99ML6FefbPtYO-1" source="QDJBu_Fl4C7gK2QnvCQO-17" target="QDJBu_Fl4C7gK2QnvCQO-6" edge="1">
                    <mxGeometry relative="1" as="geometry"/>
                </mxCell>
                <mxCell id="QDJBu_Fl4C7gK2QnvCQO-17" value="modified" style="rounded=0;whiteSpace=wrap;html=1;strokeWidth=2;fontSize=17;fillColor=#dae8fc;strokeColor=#6c8ebf;" parent="6PgwV7A99ML6FefbPtYO-1" vertex="1">
                    <mxGeometry x="549" y="400" width="100" height="48" as="geometry"/>
                </mxCell>
                <mxCell id="QDJBu_Fl4C7gK2QnvCQO-29" style="edgeStyle=orthogonalEdgeStyle;rounded=0;orthogonalLoop=1;jettySize=auto;html=1;exitX=1;exitY=0.5;exitDx=0;exitDy=0;entryX=0;entryY=0.5;entryDx=0;entryDy=0;endArrow=open;endFill=0;" parent="6PgwV7A99ML6FefbPtYO-1" source="QDJBu_Fl4C7gK2QnvCQO-18" target="QDJBu_Fl4C7gK2QnvCQO-16" edge="1">
                    <mxGeometry relative="1" as="geometry"/>
                </mxCell>
                <mxCell id="QDJBu_Fl4C7gK2QnvCQO-34" value="first" style="edgeStyle=orthogonalEdgeStyle;rounded=0;orthogonalLoop=1;jettySize=auto;html=1;exitX=0.5;exitY=1;exitDx=0;exitDy=0;entryX=0;entryY=0.5;entryDx=0;entryDy=0;endArrow=open;endFill=0;fontSize=15;" parent="6PgwV7A99ML6FefbPtYO-1" source="QDJBu_Fl4C7gK2QnvCQO-18" target="QDJBu_Fl4C7gK2QnvCQO-23" edge="1">
                    <mxGeometry x="0.3478" relative="1" as="geometry">
                        <mxPoint as="offset"/>
                    </mxGeometry>
                </mxCell>
                <mxCell id="QDJBu_Fl4C7gK2QnvCQO-18" value="created" style="rounded=0;whiteSpace=wrap;html=1;strokeWidth=2;fontSize=17;fillColor=#dae8fc;strokeColor=#6c8ebf;" parent="6PgwV7A99ML6FefbPtYO-1" vertex="1">
                    <mxGeometry x="199" y="640" width="100" height="48" as="geometry"/>
                </mxCell>
                <mxCell id="QDJBu_Fl4C7gK2QnvCQO-27" style="edgeStyle=orthogonalEdgeStyle;rounded=0;orthogonalLoop=1;jettySize=auto;html=1;exitX=0;exitY=0;exitDx=0;exitDy=0;entryX=0.5;entryY=1;entryDx=0;entryDy=0;endArrow=open;endFill=0;" parent="6PgwV7A99ML6FefbPtYO-1" source="QDJBu_Fl4C7gK2QnvCQO-25" target="QDJBu_Fl4C7gK2QnvCQO-16" edge="1">
                    <mxGeometry relative="1" as="geometry"/>
                </mxCell>
                <mxCell id="QDJBu_Fl4C7gK2QnvCQO-31" value="revision" style="text;html=1;align=center;verticalAlign=middle;resizable=0;points=[];autosize=1;" parent="6PgwV7A99ML6FefbPtYO-1" vertex="1">
                    <mxGeometry x="199" y="620" width="60" height="20" as="geometry"/>
                </mxCell>
                <mxCell id="QDJBu_Fl4C7gK2QnvCQO-32" value="revision" style="text;html=1;align=center;verticalAlign=middle;resizable=0;points=[];autosize=1;" parent="6PgwV7A99ML6FefbPtYO-1" vertex="1">
                    <mxGeometry x="549" y="380" width="60" height="20" as="geometry"/>
                </mxCell>
                <mxCell id="QDJBu_Fl4C7gK2QnvCQO-33" value="revision" style="text;html=1;align=center;verticalAlign=middle;resizable=0;points=[];autosize=1;" parent="6PgwV7A99ML6FefbPtYO-1" vertex="1">
                    <mxGeometry x="389" y="780" width="60" height="20" as="geometry"/>
                </mxCell>
                <mxCell id="QDJBu_Fl4C7gK2QnvCQO-37" value="&lt;span style=&quot;font-size: 12px;&quot;&gt;generation&lt;/span&gt;" style="text;html=1;align=center;verticalAlign=middle;resizable=0;points=[];autosize=1;fontSize=12;" parent="6PgwV7A99ML6FefbPtYO-1" vertex="1">
                    <mxGeometry x="329" y="500" width="70" height="20" as="geometry"/>
                </mxCell>
                <mxCell id="QDJBu_Fl4C7gK2QnvCQO-74" value="" style="group;fillColor=#d5e8d4;strokeColor=#82b366;" parent="6PgwV7A99ML6FefbPtYO-1" vertex="1" connectable="0">
                    <mxGeometry x="389" y="800" width="160" height="48" as="geometry"/>
                </mxCell>
                <mxCell id="QDJBu_Fl4C7gK2QnvCQO-23" value="" style="rounded=0;whiteSpace=wrap;html=1;strokeWidth=2;fontSize=17;fillColor=#d5e8d4;strokeColor=#82b366;" parent="QDJBu_Fl4C7gK2QnvCQO-74" vertex="1">
                    <mxGeometry width="40" height="48" as="geometry"/>
                </mxCell>
                <mxCell id="QDJBu_Fl4C7gK2QnvCQO-24" value="" style="rounded=0;whiteSpace=wrap;html=1;strokeWidth=2;fontSize=17;fillColor=#d5e8d4;strokeColor=#82b366;" parent="QDJBu_Fl4C7gK2QnvCQO-74" vertex="1">
                    <mxGeometry x="40" width="40" height="48" as="geometry"/>
                </mxCell>
                <mxCell id="QDJBu_Fl4C7gK2QnvCQO-25" value="" style="rounded=0;whiteSpace=wrap;html=1;strokeWidth=2;fontSize=17;fillColor=#d5e8d4;strokeColor=#82b366;" parent="QDJBu_Fl4C7gK2QnvCQO-74" vertex="1">
                    <mxGeometry x="80" width="40" height="48" as="geometry"/>
                </mxCell>
                <mxCell id="QDJBu_Fl4C7gK2QnvCQO-26" value="" style="rounded=0;whiteSpace=wrap;html=1;strokeWidth=2;fontSize=17;fillColor=#d5e8d4;strokeColor=#82b366;" parent="QDJBu_Fl4C7gK2QnvCQO-74" vertex="1">
                    <mxGeometry x="120" width="40" height="48" as="geometry"/>
                </mxCell>
                <mxCell id="QDJBu_Fl4C7gK2QnvCQO-77" value="[]byte" style="text;html=1;align=center;verticalAlign=middle;resizable=0;points=[];autosize=1;fontSize=12;" parent="6PgwV7A99ML6FefbPtYO-1" vertex="1">
                    <mxGeometry x="179" y="380" width="40" height="20" as="geometry"/>
                </mxCell>
            </root>
        </mxGraphModel>
    </diagram>
    <diagram id="vSrin2uym_1YOSk73sb8" name="Index-Put">
        <mxGraphModel dx="936" dy="717" grid="1" gridSize="10" guides="1" tooltips="1" connect="1" arrows="1" fold="1" page="1" pageScale="1" pageWidth="827" pageHeight="1169" math="0" shadow="0">
            <root>
                <mxCell id="0wyNdzEOo6EVtrW3UKAK-0"/>
                <mxCell id="0wyNdzEOo6EVtrW3UKAK-1" parent="0wyNdzEOo6EVtrW3UKAK-0"/>
                <mxCell id="0wyNdzEOo6EVtrW3UKAK-4" value="treeIndex" style="rounded=0;whiteSpace=wrap;html=1;strokeWidth=2;fontSize=17;fillColor=#ffe6cc;strokeColor=#d79b00;" parent="0wyNdzEOo6EVtrW3UKAK-1" vertex="1">
                    <mxGeometry x="330" y="250" width="100" height="48" as="geometry"/>
                </mxCell>
                <mxCell id="0wyNdzEOo6EVtrW3UKAK-5" value="" style="edgeStyle=orthogonalEdgeStyle;rounded=0;orthogonalLoop=1;jettySize=auto;html=1;endArrow=open;endFill=0;" parent="0wyNdzEOo6EVtrW3UKAK-1" source="0wyNdzEOo6EVtrW3UKAK-7" target="0wyNdzEOo6EVtrW3UKAK-4" edge="1">
                    <mxGeometry relative="1" as="geometry"/>
                </mxCell>
                <mxCell id="0wyNdzEOo6EVtrW3UKAK-36" style="edgeStyle=orthogonalEdgeStyle;rounded=0;orthogonalLoop=1;jettySize=auto;html=1;exitX=1;exitY=0.5;exitDx=0;exitDy=0;entryX=0;entryY=0.5;entryDx=0;entryDy=0;endArrow=open;endFill=0;dashed=1;" parent="0wyNdzEOo6EVtrW3UKAK-1" source="0wyNdzEOo6EVtrW3UKAK-7" target="0wyNdzEOo6EVtrW3UKAK-9" edge="1">
                    <mxGeometry relative="1" as="geometry"/>
                </mxCell>
                <mxCell id="0wyNdzEOo6EVtrW3UKAK-7" value="btree" style="rounded=0;whiteSpace=wrap;html=1;strokeWidth=2;fontSize=17;fillColor=#d5e8d4;strokeColor=#82b366;" parent="0wyNdzEOo6EVtrW3UKAK-1" vertex="1">
                    <mxGeometry x="330" y="360" width="100" height="48" as="geometry"/>
                </mxCell>
                <mxCell id="0wyNdzEOo6EVtrW3UKAK-8" value="32" style="text;html=1;align=center;verticalAlign=middle;resizable=0;points=[];autosize=1;" parent="0wyNdzEOo6EVtrW3UKAK-1" vertex="1">
                    <mxGeometry x="330" y="360" width="30" height="20" as="geometry"/>
                </mxCell>
                <mxCell id="0wyNdzEOo6EVtrW3UKAK-9" value="keyIndex" style="rounded=0;whiteSpace=wrap;html=1;strokeWidth=2;fontSize=17;fillColor=#dae8fc;strokeColor=#6c8ebf;" parent="0wyNdzEOo6EVtrW3UKAK-1" vertex="1">
                    <mxGeometry x="520" y="360" width="100" height="48" as="geometry"/>
                </mxCell>
                <mxCell id="0wyNdzEOo6EVtrW3UKAK-10" value="Get" style="edgeStyle=orthogonalEdgeStyle;rounded=0;orthogonalLoop=1;jettySize=auto;html=1;exitX=1;exitY=0.5;exitDx=0;exitDy=0;entryX=0;entryY=1.25;entryDx=0;entryDy=0;endArrow=open;endFill=0;entryPerimeter=0;fontSize=15;dashed=1;" parent="0wyNdzEOo6EVtrW3UKAK-1" source="0wyNdzEOo6EVtrW3UKAK-11" target="0wyNdzEOo6EVtrW3UKAK-8" edge="1">
                    <mxGeometry relative="1" as="geometry"/>
                </mxCell>
                <mxCell id="0wyNdzEOo6EVtrW3UKAK-11" value="key" style="rounded=0;whiteSpace=wrap;html=1;strokeWidth=2;fontSize=17;fillColor=#fff2cc;strokeColor=#d6b656;" parent="0wyNdzEOo6EVtrW3UKAK-1" vertex="1">
                    <mxGeometry x="120" y="360" width="100" height="48" as="geometry"/>
                </mxCell>
                <mxCell id="0wyNdzEOo6EVtrW3UKAK-38" value="keyIndex" style="text;html=1;align=center;verticalAlign=middle;resizable=0;points=[];autosize=1;fontSize=12;" parent="0wyNdzEOo6EVtrW3UKAK-1" vertex="1">
                    <mxGeometry x="120" y="340" width="60" height="20" as="geometry"/>
                </mxCell>
                <mxCell id="T0d4UW6QR_WsRM8NjmS4-0" value="" style="rounded=0;whiteSpace=wrap;html=1;strokeWidth=2;fontSize=17;fillColor=#d5e8d4;strokeColor=#82b366;" parent="0wyNdzEOo6EVtrW3UKAK-1" vertex="1">
                    <mxGeometry x="490" y="470" width="40" height="48" as="geometry"/>
                </mxCell>
                <mxCell id="T0d4UW6QR_WsRM8NjmS4-1" value="" style="rounded=0;whiteSpace=wrap;html=1;strokeWidth=2;fontSize=17;fillColor=#d5e8d4;strokeColor=#82b366;" parent="0wyNdzEOo6EVtrW3UKAK-1" vertex="1">
                    <mxGeometry x="530" y="470" width="40" height="48" as="geometry"/>
                </mxCell>
                <mxCell id="T0d4UW6QR_WsRM8NjmS4-5" style="edgeStyle=orthogonalEdgeStyle;rounded=0;orthogonalLoop=1;jettySize=auto;html=1;exitX=0;exitY=0;exitDx=0;exitDy=0;entryX=0.5;entryY=1;entryDx=0;entryDy=0;endArrow=open;endFill=0;fontSize=12;" parent="0wyNdzEOo6EVtrW3UKAK-1" source="T0d4UW6QR_WsRM8NjmS4-2" target="0wyNdzEOo6EVtrW3UKAK-9" edge="1">
                    <mxGeometry relative="1" as="geometry"/>
                </mxCell>
                <mxCell id="T0d4UW6QR_WsRM8NjmS4-2" value="" style="rounded=0;whiteSpace=wrap;html=1;strokeWidth=2;fontSize=17;fillColor=#d5e8d4;strokeColor=#82b366;" parent="0wyNdzEOo6EVtrW3UKAK-1" vertex="1">
                    <mxGeometry x="570" y="470" width="40" height="48" as="geometry"/>
                </mxCell>
                <mxCell id="Ie7RcOFSItnt5OX3xWtk-0" value="last" style="edgeStyle=orthogonalEdgeStyle;rounded=0;orthogonalLoop=1;jettySize=auto;html=1;exitX=0.5;exitY=1;exitDx=0;exitDy=0;endArrow=open;endFill=0;fontSize=15;entryX=0.5;entryY=0;entryDx=0;entryDy=0;dashed=1;" parent="0wyNdzEOo6EVtrW3UKAK-1" source="T0d4UW6QR_WsRM8NjmS4-3" target="Ie7RcOFSItnt5OX3xWtk-1" edge="1">
                    <mxGeometry relative="1" as="geometry">
                        <mxPoint x="610" y="710" as="targetPoint"/>
                    </mxGeometry>
                </mxCell>
                <mxCell id="T0d4UW6QR_WsRM8NjmS4-3" value="" style="rounded=0;whiteSpace=wrap;html=1;strokeWidth=2;fontSize=17;fillColor=#d5e8d4;strokeColor=#82b366;" parent="0wyNdzEOo6EVtrW3UKAK-1" vertex="1">
                    <mxGeometry x="610" y="470" width="40" height="48" as="geometry"/>
                </mxCell>
                <mxCell id="T0d4UW6QR_WsRM8NjmS4-4" value="&lt;span style=&quot;font-size: 12px;&quot;&gt;generation&lt;/span&gt;" style="text;html=1;align=center;verticalAlign=middle;resizable=0;points=[];autosize=1;fontSize=12;" parent="0wyNdzEOo6EVtrW3UKAK-1" vertex="1">
                    <mxGeometry x="490" y="450" width="70" height="20" as="geometry"/>
                </mxCell>
                <mxCell id="T0d4UW6QR_WsRM8NjmS4-6" value="keyIndex" style="text;html=1;align=center;verticalAlign=middle;resizable=0;points=[];autosize=1;fontSize=12;" parent="0wyNdzEOo6EVtrW3UKAK-1" vertex="1">
                    <mxGeometry x="520" y="340" width="60" height="20" as="geometry"/>
                </mxCell>
                <mxCell id="Ie7RcOFSItnt5OX3xWtk-1" value="generation" style="rounded=0;whiteSpace=wrap;html=1;strokeWidth=2;fontSize=17;" parent="0wyNdzEOo6EVtrW3UKAK-1" vertex="1">
                    <mxGeometry x="580" y="590" width="100" height="48" as="geometry"/>
                </mxCell>
                <mxCell id="4qm9kuS1j0dFMBvwkEA6-7" value="append" style="edgeStyle=orthogonalEdgeStyle;rounded=0;orthogonalLoop=1;jettySize=auto;html=1;exitX=0.5;exitY=1;exitDx=0;exitDy=0;entryX=0.5;entryY=1;entryDx=0;entryDy=0;endArrow=open;endFill=0;fontSize=15;dashed=1;" parent="0wyNdzEOo6EVtrW3UKAK-1" source="Ie7RcOFSItnt5OX3xWtk-2" target="4qm9kuS1j0dFMBvwkEA6-4" edge="1">
                    <mxGeometry relative="1" as="geometry"/>
                </mxCell>
                <mxCell id="Ie7RcOFSItnt5OX3xWtk-2" value="revision" style="rounded=0;whiteSpace=wrap;html=1;strokeWidth=2;fontSize=17;fillColor=#fff2cc;strokeColor=#d6b656;" parent="0wyNdzEOo6EVtrW3UKAK-1" vertex="1">
                    <mxGeometry x="120" y="590" width="100" height="48" as="geometry"/>
                </mxCell>
                <mxCell id="4qm9kuS1j0dFMBvwkEA6-0" value="" style="group;fillColor=#d5e8d4;strokeColor=#82b366;" parent="0wyNdzEOo6EVtrW3UKAK-1" vertex="1" connectable="0">
                    <mxGeometry x="310" y="590" width="160" height="48" as="geometry"/>
                </mxCell>
                <mxCell id="4qm9kuS1j0dFMBvwkEA6-1" value="" style="rounded=0;whiteSpace=wrap;html=1;strokeWidth=2;fontSize=17;fillColor=#d5e8d4;strokeColor=#82b366;" parent="4qm9kuS1j0dFMBvwkEA6-0" vertex="1">
                    <mxGeometry width="40" height="48" as="geometry"/>
                </mxCell>
                <mxCell id="4qm9kuS1j0dFMBvwkEA6-2" value="" style="rounded=0;whiteSpace=wrap;html=1;strokeWidth=2;fontSize=17;fillColor=#d5e8d4;strokeColor=#82b366;" parent="4qm9kuS1j0dFMBvwkEA6-0" vertex="1">
                    <mxGeometry x="40" width="40" height="48" as="geometry"/>
                </mxCell>
                <mxCell id="4qm9kuS1j0dFMBvwkEA6-3" value="" style="rounded=0;whiteSpace=wrap;html=1;strokeWidth=2;fontSize=17;fillColor=#d5e8d4;strokeColor=#82b366;" parent="4qm9kuS1j0dFMBvwkEA6-0" vertex="1">
                    <mxGeometry x="80" width="40" height="48" as="geometry"/>
                </mxCell>
                <mxCell id="4qm9kuS1j0dFMBvwkEA6-4" value="" style="rounded=0;whiteSpace=wrap;html=1;strokeWidth=2;fontSize=17;fillColor=#d5e8d4;strokeColor=#82b366;" parent="4qm9kuS1j0dFMBvwkEA6-0" vertex="1">
                    <mxGeometry x="120" width="40" height="48" as="geometry"/>
                </mxCell>
                <mxCell id="4qm9kuS1j0dFMBvwkEA6-6" style="edgeStyle=orthogonalEdgeStyle;rounded=0;orthogonalLoop=1;jettySize=auto;html=1;exitX=1;exitY=0.5;exitDx=0;exitDy=0;entryX=0;entryY=0.5;entryDx=0;entryDy=0;endArrow=open;endFill=0;fontSize=15;" parent="0wyNdzEOo6EVtrW3UKAK-1" source="4qm9kuS1j0dFMBvwkEA6-4" target="Ie7RcOFSItnt5OX3xWtk-1" edge="1">
                    <mxGeometry relative="1" as="geometry"/>
                </mxCell>
                <mxCell id="4qm9kuS1j0dFMBvwkEA6-8" value="revision" style="text;html=1;align=center;verticalAlign=middle;resizable=0;points=[];autosize=1;fontSize=12;" parent="0wyNdzEOo6EVtrW3UKAK-1" vertex="1">
                    <mxGeometry x="310" y="570" width="60" height="20" as="geometry"/>
                </mxCell>
            </root>
        </mxGraphModel>
    </diagram>
    <diagram id="OuiJvljMIQz0Lgoki-G_" name="Read">
        <mxGraphModel dx="936" dy="717" grid="1" gridSize="10" guides="1" tooltips="1" connect="1" arrows="1" fold="1" page="1" pageScale="1" pageWidth="827" pageHeight="1169" math="0" shadow="0">
            <root>
                <mxCell id="ByRvZxO2sF8YMJCtYFil-0"/>
                <mxCell id="ByRvZxO2sF8YMJCtYFil-1" parent="ByRvZxO2sF8YMJCtYFil-0"/>
                <mxCell id="b3TQKwg2fwVd6wRsaXdV-4" value="Read" style="edgeStyle=orthogonalEdgeStyle;rounded=0;orthogonalLoop=1;jettySize=auto;html=1;exitX=0;exitY=0.5;exitDx=0;exitDy=0;entryX=0.5;entryY=0;entryDx=0;entryDy=0;endArrow=open;endFill=0;fontSize=12;dashed=1;fillColor=#dae8fc;strokeColor=#6c8ebf;fontColor=#7EA6E0;" parent="ByRvZxO2sF8YMJCtYFil-1" source="wLwEf4sDK3JDA8qj9y1--0" target="b3TQKwg2fwVd6wRsaXdV-3" edge="1">
                    <mxGeometry x="0.4717" relative="1" as="geometry">
                        <mxPoint as="offset"/>
                    </mxGeometry>
                </mxCell>
                <mxCell id="fMIy77XHTm2yV2sAsKOK-9" value="currentRev" style="edgeStyle=orthogonalEdgeStyle;rounded=0;orthogonalLoop=1;jettySize=auto;html=1;exitX=0.5;exitY=1;exitDx=0;exitDy=0;entryX=0.5;entryY=0;entryDx=0;entryDy=0;endArrow=open;endFill=0;fontSize=12;fillColor=#dae8fc;strokeColor=#6c8ebf;dashed=1;fontColor=#7EA6E0;" parent="ByRvZxO2sF8YMJCtYFil-1" source="wLwEf4sDK3JDA8qj9y1--0" target="fMIy77XHTm2yV2sAsKOK-4" edge="1">
                    <mxGeometry relative="1" as="geometry"/>
                </mxCell>
                <mxCell id="wLwEf4sDK3JDA8qj9y1--0" value="store" style="rounded=0;whiteSpace=wrap;html=1;strokeWidth=2;fontSize=17;fillColor=#dae8fc;strokeColor=#6c8ebf;" parent="ByRvZxO2sF8YMJCtYFil-1" vertex="1">
                    <mxGeometry x="189" y="310" width="100" height="48" as="geometry"/>
                </mxCell>
                <mxCell id="b3TQKwg2fwVd6wRsaXdV-21" value="create&lt;br&gt;tx.Rlock()" style="edgeStyle=orthogonalEdgeStyle;rounded=0;orthogonalLoop=1;jettySize=auto;html=1;exitX=1;exitY=0.5;exitDx=0;exitDy=0;entryX=0;entryY=0.5;entryDx=0;entryDy=0;dashed=1;endArrow=open;endFill=0;fontSize=12;fillColor=#dae8fc;strokeColor=#6c8ebf;fontColor=#7EA6E0;" parent="ByRvZxO2sF8YMJCtYFil-1" source="wLwEf4sDK3JDA8qj9y1--1" target="wLwEf4sDK3JDA8qj9y1--2" edge="1">
                    <mxGeometry relative="1" as="geometry"/>
                </mxCell>
                <mxCell id="b3TQKwg2fwVd6wRsaXdV-22" value="tx.Runlock()" style="edgeStyle=orthogonalEdgeStyle;rounded=0;orthogonalLoop=1;jettySize=auto;html=1;exitX=0.5;exitY=1;exitDx=0;exitDy=0;dashed=1;endArrow=open;endFill=0;fontSize=12;fontColor=#7EA6E0;fillColor=#dae8fc;strokeColor=#6c8ebf;" parent="ByRvZxO2sF8YMJCtYFil-1" source="wLwEf4sDK3JDA8qj9y1--1" target="b3TQKwg2fwVd6wRsaXdV-23" edge="1">
                    <mxGeometry relative="1" as="geometry">
                        <mxPoint x="230" y="630" as="targetPoint"/>
                    </mxGeometry>
                </mxCell>
                <mxCell id="fMIy77XHTm2yV2sAsKOK-1" style="edgeStyle=orthogonalEdgeStyle;rounded=0;orthogonalLoop=1;jettySize=auto;html=1;exitX=0;exitY=0.5;exitDx=0;exitDy=0;entryX=1;entryY=0.5;entryDx=0;entryDy=0;endArrow=block;endFill=0;fontSize=12;fontColor=#000000;" parent="ByRvZxO2sF8YMJCtYFil-1" source="wLwEf4sDK3JDA8qj9y1--1" target="b3TQKwg2fwVd6wRsaXdV-3" edge="1">
                    <mxGeometry relative="1" as="geometry"/>
                </mxCell>
                <mxCell id="wLwEf4sDK3JDA8qj9y1--1" value="storeTxnRead" style="rounded=0;whiteSpace=wrap;html=1;strokeWidth=2;fontSize=17;fillColor=#dae8fc;strokeColor=#6c8ebf;" parent="ByRvZxO2sF8YMJCtYFil-1" vertex="1">
                    <mxGeometry x="174" y="550" width="130" height="48" as="geometry"/>
                </mxCell>
                <mxCell id="b3TQKwg2fwVd6wRsaXdV-18" style="edgeStyle=orthogonalEdgeStyle;rounded=0;orthogonalLoop=1;jettySize=auto;html=1;exitX=0.5;exitY=1;exitDx=0;exitDy=0;dashed=1;endArrow=open;endFill=0;fontSize=12;fontColor=#F19C99;strokeColor=#F19C99;" parent="ByRvZxO2sF8YMJCtYFil-1" source="wLwEf4sDK3JDA8qj9y1--2" target="b3TQKwg2fwVd6wRsaXdV-19" edge="1">
                    <mxGeometry relative="1" as="geometry">
                        <mxPoint x="560" y="880" as="targetPoint"/>
                    </mxGeometry>
                </mxCell>
                <mxCell id="wLwEf4sDK3JDA8qj9y1--2" value="ConcurrentReadTx" style="rounded=0;whiteSpace=wrap;html=1;strokeWidth=2;fontSize=17;fillColor=#dae8fc;strokeColor=#6c8ebf;" parent="ByRvZxO2sF8YMJCtYFil-1" vertex="1">
                    <mxGeometry x="469" y="550" width="180" height="48" as="geometry"/>
                </mxCell>
                <mxCell id="wLwEf4sDK3JDA8qj9y1--3" value="backend" style="text;html=1;align=center;verticalAlign=middle;resizable=0;points=[];autosize=1;fontSize=12;" parent="ByRvZxO2sF8YMJCtYFil-1" vertex="1">
                    <mxGeometry x="468.5" y="530" width="60" height="20" as="geometry"/>
                </mxCell>
                <mxCell id="b3TQKwg2fwVd6wRsaXdV-1" style="edgeStyle=orthogonalEdgeStyle;rounded=0;orthogonalLoop=1;jettySize=auto;html=1;exitX=0;exitY=0.5;exitDx=0;exitDy=0;entryX=1;entryY=0.5;entryDx=0;entryDy=0;endArrow=open;endFill=0;" parent="ByRvZxO2sF8YMJCtYFil-1" source="b3TQKwg2fwVd6wRsaXdV-0" target="wLwEf4sDK3JDA8qj9y1--0" edge="1">
                    <mxGeometry relative="1" as="geometry"/>
                </mxCell>
                <mxCell id="b3TQKwg2fwVd6wRsaXdV-7" style="edgeStyle=orthogonalEdgeStyle;rounded=0;orthogonalLoop=1;jettySize=auto;html=1;exitX=0.5;exitY=1;exitDx=0;exitDy=0;dashed=1;endArrow=open;endFill=0;fontSize=15;entryX=0;entryY=0;entryDx=0;entryDy=0;fontColor=#F19C99;strokeColor=#F19C99;" parent="ByRvZxO2sF8YMJCtYFil-1" source="b3TQKwg2fwVd6wRsaXdV-0" target="b3TQKwg2fwVd6wRsaXdV-11" edge="1">
                    <mxGeometry relative="1" as="geometry">
                        <mxPoint x="559" y="500" as="targetPoint"/>
                    </mxGeometry>
                </mxCell>
                <mxCell id="b3TQKwg2fwVd6wRsaXdV-0" value="kvIndex" style="rounded=0;whiteSpace=wrap;html=1;strokeWidth=2;fontSize=17;fillColor=#dae8fc;strokeColor=#6c8ebf;" parent="ByRvZxO2sF8YMJCtYFil-1" vertex="1">
                    <mxGeometry x="509" y="310" width="100" height="48" as="geometry"/>
                </mxCell>
                <mxCell id="b3TQKwg2fwVd6wRsaXdV-3" value="ReadTxn" style="rounded=0;whiteSpace=wrap;html=1;strokeWidth=2;fontSize=17;dashed=1;fillColor=#ffe6cc;strokeColor=#d79b00;" parent="ByRvZxO2sF8YMJCtYFil-1" vertex="1">
                    <mxGeometry x="10" y="550" width="100" height="48" as="geometry"/>
                </mxCell>
                <mxCell id="b3TQKwg2fwVd6wRsaXdV-9" value="" style="rounded=0;whiteSpace=wrap;html=1;strokeWidth=2;fontSize=17;fillColor=#f8cecc;strokeColor=#b85450;" parent="ByRvZxO2sF8YMJCtYFil-1" vertex="1">
                    <mxGeometry x="479" y="430" width="40" height="48" as="geometry"/>
                </mxCell>
                <mxCell id="b3TQKwg2fwVd6wRsaXdV-10" value="" style="rounded=0;whiteSpace=wrap;html=1;strokeWidth=2;fontSize=17;fillColor=#f8cecc;strokeColor=#b85450;" parent="ByRvZxO2sF8YMJCtYFil-1" vertex="1">
                    <mxGeometry x="519" y="430" width="40" height="48" as="geometry"/>
                </mxCell>
                <mxCell id="fMIy77XHTm2yV2sAsKOK-11" value="UnsafeRange" style="edgeStyle=orthogonalEdgeStyle;rounded=0;orthogonalLoop=1;jettySize=auto;html=1;exitX=0;exitY=1;exitDx=0;exitDy=0;entryX=0.5;entryY=0;entryDx=0;entryDy=0;dashed=1;endArrow=open;endFill=0;strokeColor=#F19C99;fontSize=12;fontColor=#F19C99;" parent="ByRvZxO2sF8YMJCtYFil-1" source="b3TQKwg2fwVd6wRsaXdV-11" target="wLwEf4sDK3JDA8qj9y1--2" edge="1">
                    <mxGeometry relative="1" as="geometry"/>
                </mxCell>
                <mxCell id="b3TQKwg2fwVd6wRsaXdV-11" value="" style="rounded=0;whiteSpace=wrap;html=1;strokeWidth=2;fontSize=17;fillColor=#f8cecc;strokeColor=#b85450;" parent="ByRvZxO2sF8YMJCtYFil-1" vertex="1">
                    <mxGeometry x="559" y="430" width="40" height="48" as="geometry"/>
                </mxCell>
                <mxCell id="b3TQKwg2fwVd6wRsaXdV-12" value="" style="rounded=0;whiteSpace=wrap;html=1;strokeWidth=2;fontSize=17;fillColor=#f8cecc;strokeColor=#b85450;" parent="ByRvZxO2sF8YMJCtYFil-1" vertex="1">
                    <mxGeometry x="599" y="430" width="40" height="48" as="geometry"/>
                </mxCell>
                <mxCell id="b3TQKwg2fwVd6wRsaXdV-13" value="revision" style="text;html=1;align=center;verticalAlign=middle;resizable=0;points=[];autosize=1;fontSize=12;" parent="ByRvZxO2sF8YMJCtYFil-1" vertex="1">
                    <mxGeometry x="479" y="410" width="60" height="20" as="geometry"/>
                </mxCell>
                <mxCell id="b3TQKwg2fwVd6wRsaXdV-19" value="values" style="rounded=0;whiteSpace=wrap;html=1;strokeWidth=2;fontSize=17;fillColor=#d5e8d4;strokeColor=#82b366;" parent="ByRvZxO2sF8YMJCtYFil-1" vertex="1">
                    <mxGeometry x="528.5" y="700" width="61" height="48" as="geometry"/>
                </mxCell>
                <mxCell id="b3TQKwg2fwVd6wRsaXdV-23" value="End" style="rounded=0;whiteSpace=wrap;html=1;strokeWidth=2;fontSize=17;dashed=1;fillColor=#fff2cc;strokeColor=#d6b656;" parent="ByRvZxO2sF8YMJCtYFil-1" vertex="1">
                    <mxGeometry x="189" y="700" width="100" height="48" as="geometry"/>
                </mxCell>
                <mxCell id="fMIy77XHTm2yV2sAsKOK-10" value="Revisions" style="edgeStyle=orthogonalEdgeStyle;rounded=0;orthogonalLoop=1;jettySize=auto;html=1;exitX=1;exitY=0.5;exitDx=0;exitDy=0;entryX=0;entryY=0.75;entryDx=0;entryDy=0;endArrow=open;endFill=0;fontSize=12;fillColor=#f8cecc;strokeColor=#F19C99;fontColor=#F19C99;dashed=1;" parent="ByRvZxO2sF8YMJCtYFil-1" source="fMIy77XHTm2yV2sAsKOK-4" target="b3TQKwg2fwVd6wRsaXdV-0" edge="1">
                    <mxGeometry relative="1" as="geometry"/>
                </mxCell>
                <mxCell id="la2nWP2K2a-qvUJawQzu-1" style="edgeStyle=orthogonalEdgeStyle;rounded=0;orthogonalLoop=1;jettySize=auto;html=1;exitX=0.5;exitY=1;exitDx=0;exitDy=0;entryX=0.5;entryY=0;entryDx=0;entryDy=0;endArrow=open;endFill=0;fontSize=12;fontColor=#7EA6E0;" parent="ByRvZxO2sF8YMJCtYFil-1" source="fMIy77XHTm2yV2sAsKOK-4" target="wLwEf4sDK3JDA8qj9y1--1" edge="1">
                    <mxGeometry relative="1" as="geometry"/>
                </mxCell>
                <mxCell id="fMIy77XHTm2yV2sAsKOK-4" value="rev" style="rounded=0;whiteSpace=wrap;html=1;strokeWidth=2;fontSize=17;fillColor=#f8cecc;strokeColor=#b85450;" parent="ByRvZxO2sF8YMJCtYFil-1" vertex="1">
                    <mxGeometry x="218.5" y="430" width="41" height="48" as="geometry"/>
                </mxCell>
            </root>
        </mxGraphModel>
    </diagram>
    <diagram id="5c_PZMryrh35BD3SpZCH" name="Put">
        <mxGraphModel dx="1763" dy="717" grid="1" gridSize="10" guides="1" tooltips="1" connect="1" arrows="1" fold="1" page="1" pageScale="1" pageWidth="827" pageHeight="1169" math="0" shadow="0">
            <root>
                <mxCell id="6_Ur4R1la_x42Wz0M2_A-0"/>
                <mxCell id="6_Ur4R1la_x42Wz0M2_A-1" parent="6_Ur4R1la_x42Wz0M2_A-0"/>
                <mxCell id="ukDjIXnvPQXBdwwKgRzc-24" value="Write" style="edgeStyle=orthogonalEdgeStyle;rounded=0;orthogonalLoop=1;jettySize=auto;html=1;exitX=0.5;exitY=1;exitDx=0;exitDy=0;entryX=0.5;entryY=0;entryDx=0;entryDy=0;dashed=1;endArrow=open;endFill=0;fontSize=12;fillColor=#dae8fc;strokeColor=#6c8ebf;fontColor=#7EA6E0;" parent="6_Ur4R1la_x42Wz0M2_A-1" source="ukDjIXnvPQXBdwwKgRzc-22" target="ukDjIXnvPQXBdwwKgRzc-23" edge="1">
                    <mxGeometry x="-0.1111" relative="1" as="geometry">
                        <mxPoint as="offset"/>
                    </mxGeometry>
                </mxCell>
                <mxCell id="V_jTfd3ySk3XdLUxlUWt-15" value="currentRev" style="edgeStyle=orthogonalEdgeStyle;rounded=0;orthogonalLoop=1;jettySize=auto;html=1;exitX=0;exitY=0.5;exitDx=0;exitDy=0;entryX=0.5;entryY=0;entryDx=0;entryDy=0;endArrow=open;endFill=0;fontSize=12;dashed=1;fillColor=#dae8fc;strokeColor=#6c8ebf;fontColor=#7EA6E0;" parent="6_Ur4R1la_x42Wz0M2_A-1" source="ukDjIXnvPQXBdwwKgRzc-22" target="V_jTfd3ySk3XdLUxlUWt-13" edge="1">
                    <mxGeometry relative="1" as="geometry"/>
                </mxCell>
                <mxCell id="ukDjIXnvPQXBdwwKgRzc-22" value="store" style="rounded=0;whiteSpace=wrap;html=1;strokeWidth=2;fontSize=17;fillColor=#dae8fc;strokeColor=#6c8ebf;" parent="6_Ur4R1la_x42Wz0M2_A-1" vertex="1">
                    <mxGeometry x="-330" y="270" width="100" height="48" as="geometry"/>
                </mxCell>
                <mxCell id="DFR74hTNXU-xeinWCwXe-1" value="" style="group" parent="6_Ur4R1la_x42Wz0M2_A-1" vertex="1" connectable="0">
                    <mxGeometry x="-110" y="500" width="100" height="68" as="geometry"/>
                </mxCell>
                <mxCell id="ukDjIXnvPQXBdwwKgRzc-27" value="backend" style="text;html=1;align=center;verticalAlign=middle;resizable=0;points=[];autosize=1;fontSize=12;fontColor=#000000;" parent="DFR74hTNXU-xeinWCwXe-1" vertex="1">
                    <mxGeometry width="60" height="20" as="geometry"/>
                </mxCell>
                <mxCell id="ukDjIXnvPQXBdwwKgRzc-26" value="BatchTx" style="rounded=0;whiteSpace=wrap;html=1;strokeWidth=2;fontSize=17;fillColor=#f8cecc;strokeColor=#b85450;" parent="DFR74hTNXU-xeinWCwXe-1" vertex="1">
                    <mxGeometry y="20" width="100" height="48" as="geometry"/>
                </mxCell>
                <mxCell id="ukDjIXnvPQXBdwwKgRzc-23" value="TxnWrite" style="rounded=0;whiteSpace=wrap;html=1;strokeWidth=2;fontSize=17;dashed=1;fillColor=#ffe6cc;strokeColor=#d79b00;" parent="6_Ur4R1la_x42Wz0M2_A-1" vertex="1">
                    <mxGeometry x="-340" y="400" width="120" height="48" as="geometry"/>
                </mxCell>
                <mxCell id="ukDjIXnvPQXBdwwKgRzc-28" value="tx.Lock()" style="edgeStyle=orthogonalEdgeStyle;rounded=0;orthogonalLoop=1;jettySize=auto;html=1;exitX=1;exitY=0.5;exitDx=0;exitDy=0;entryX=0;entryY=0.5;entryDx=0;entryDy=0;dashed=1;endArrow=open;endFill=0;fontSize=12;fillColor=#dae8fc;strokeColor=#6c8ebf;fontColor=#7EA6E0;" parent="6_Ur4R1la_x42Wz0M2_A-1" source="ukDjIXnvPQXBdwwKgRzc-25" target="ukDjIXnvPQXBdwwKgRzc-26" edge="1">
                    <mxGeometry relative="1" as="geometry"/>
                </mxCell>
                <mxCell id="ukDjIXnvPQXBdwwKgRzc-29" style="edgeStyle=orthogonalEdgeStyle;rounded=0;orthogonalLoop=1;jettySize=auto;html=1;exitX=0.5;exitY=0;exitDx=0;exitDy=0;entryX=0.5;entryY=1;entryDx=0;entryDy=0;endArrow=block;endFill=0;fontSize=12;fontColor=#000000;" parent="6_Ur4R1la_x42Wz0M2_A-1" source="ukDjIXnvPQXBdwwKgRzc-25" target="ukDjIXnvPQXBdwwKgRzc-23" edge="1">
                    <mxGeometry relative="1" as="geometry"/>
                </mxCell>
                <mxCell id="ukDjIXnvPQXBdwwKgRzc-25" value="storeTxnWrite" style="rounded=0;whiteSpace=wrap;html=1;strokeWidth=2;fontSize=17;fillColor=#dae8fc;strokeColor=#6c8ebf;" parent="6_Ur4R1la_x42Wz0M2_A-1" vertex="1">
                    <mxGeometry x="-345" y="520" width="130" height="48" as="geometry"/>
                </mxCell>
                <mxCell id="V_jTfd3ySk3XdLUxlUWt-17" value="sub = len(changes)" style="edgeStyle=orthogonalEdgeStyle;rounded=0;orthogonalLoop=1;jettySize=auto;html=1;exitX=0;exitY=0;exitDx=0;exitDy=0;dashed=1;endArrow=open;endFill=0;fontSize=12;entryX=0.5;entryY=1;entryDx=0;entryDy=0;strokeColor=#F19C99;fontColor=#F19C99;" parent="6_Ur4R1la_x42Wz0M2_A-1" target="V_jTfd3ySk3XdLUxlUWt-18" edge="1">
                    <mxGeometry x="0.3499" relative="1" as="geometry">
                        <mxPoint x="-763" y="579" as="targetPoint"/>
                        <mxPoint x="-323" y="662" as="sourcePoint"/>
                        <Array as="points">
                            <mxPoint x="-323" y="599"/>
                            <mxPoint x="-760" y="599"/>
                        </Array>
                        <mxPoint as="offset"/>
                    </mxGeometry>
                </mxCell>
                <mxCell id="HSylud-aRqURHwG577-V-2" value="" style="rounded=0;whiteSpace=wrap;html=1;strokeWidth=2;fontSize=17;fillColor=#f8cecc;strokeColor=#b85450;" parent="6_Ur4R1la_x42Wz0M2_A-1" vertex="1">
                    <mxGeometry x="-360" y="661" width="40" height="48" as="geometry"/>
                </mxCell>
                <mxCell id="HSylud-aRqURHwG577-V-3" value="" style="rounded=0;whiteSpace=wrap;html=1;strokeWidth=2;fontSize=17;fillColor=#f8cecc;strokeColor=#b85450;" parent="6_Ur4R1la_x42Wz0M2_A-1" vertex="1">
                    <mxGeometry x="-320" y="661" width="40" height="48" as="geometry"/>
                </mxCell>
                <mxCell id="V_jTfd3ySk3XdLUxlUWt-3" value="changes" style="edgeStyle=orthogonalEdgeStyle;rounded=0;orthogonalLoop=1;jettySize=auto;html=1;exitX=0;exitY=0;exitDx=0;exitDy=0;entryX=0.5;entryY=1;entryDx=0;entryDy=0;endArrow=open;endFill=0;fontSize=12;fontColor=#000000;" parent="6_Ur4R1la_x42Wz0M2_A-1" source="HSylud-aRqURHwG577-V-4" target="ukDjIXnvPQXBdwwKgRzc-25" edge="1">
                    <mxGeometry relative="1" as="geometry"/>
                </mxCell>
                <mxCell id="HSylud-aRqURHwG577-V-4" value="" style="rounded=0;whiteSpace=wrap;html=1;strokeWidth=2;fontSize=17;fillColor=#f8cecc;strokeColor=#b85450;" parent="6_Ur4R1la_x42Wz0M2_A-1" vertex="1">
                    <mxGeometry x="-280" y="661" width="40" height="48" as="geometry"/>
                </mxCell>
                <mxCell id="HSylud-aRqURHwG577-V-5" value="" style="rounded=0;whiteSpace=wrap;html=1;strokeWidth=2;fontSize=17;fillColor=#f8cecc;strokeColor=#b85450;" parent="6_Ur4R1la_x42Wz0M2_A-1" vertex="1">
                    <mxGeometry x="-240" y="661" width="40" height="48" as="geometry"/>
                </mxCell>
                <mxCell id="HSylud-aRqURHwG577-V-6" value="mvccpb.KeyValue" style="text;html=1;align=center;verticalAlign=middle;resizable=0;points=[];autosize=1;fontSize=12;fontColor=#000000;" parent="6_Ur4R1la_x42Wz0M2_A-1" vertex="1">
                    <mxGeometry x="-280" y="641" width="110" height="20" as="geometry"/>
                </mxCell>
                <mxCell id="V_jTfd3ySk3XdLUxlUWt-1" style="edgeStyle=orthogonalEdgeStyle;rounded=0;orthogonalLoop=1;jettySize=auto;html=1;exitX=0.5;exitY=1;exitDx=0;exitDy=0;entryX=0.5;entryY=0;entryDx=0;entryDy=0;endArrow=open;endFill=0;fontSize=15;fontColor=#000000;" parent="6_Ur4R1la_x42Wz0M2_A-1" source="V_jTfd3ySk3XdLUxlUWt-0" target="ukDjIXnvPQXBdwwKgRzc-22" edge="1">
                    <mxGeometry relative="1" as="geometry"/>
                </mxCell>
                <mxCell id="V_jTfd3ySk3XdLUxlUWt-0" value="keyIndex" style="rounded=0;whiteSpace=wrap;html=1;strokeWidth=2;fontSize=17;fillColor=#dae8fc;strokeColor=#6c8ebf;" parent="6_Ur4R1la_x42Wz0M2_A-1" vertex="1">
                    <mxGeometry x="-330" y="160" width="100" height="48" as="geometry"/>
                </mxCell>
                <mxCell id="V_jTfd3ySk3XdLUxlUWt-22" style="edgeStyle=orthogonalEdgeStyle;rounded=0;orthogonalLoop=1;jettySize=auto;html=1;exitX=1;exitY=0.5;exitDx=0;exitDy=0;entryX=0;entryY=0.5;entryDx=0;entryDy=0;endArrow=open;endFill=0;fontSize=12;fontColor=#000000;" parent="6_Ur4R1la_x42Wz0M2_A-1" source="V_jTfd3ySk3XdLUxlUWt-4" target="V_jTfd3ySk3XdLUxlUWt-20" edge="1">
                    <mxGeometry relative="1" as="geometry"/>
                </mxCell>
                <mxCell id="V_jTfd3ySk3XdLUxlUWt-4" value="key" style="rounded=0;whiteSpace=wrap;html=1;strokeWidth=2;fontSize=17;fillColor=#d5e8d4;strokeColor=#82b366;" parent="6_Ur4R1la_x42Wz0M2_A-1" vertex="1">
                    <mxGeometry x="-780" y="790" width="40" height="48" as="geometry"/>
                </mxCell>
                <mxCell id="V_jTfd3ySk3XdLUxlUWt-23" style="edgeStyle=orthogonalEdgeStyle;rounded=0;orthogonalLoop=1;jettySize=auto;html=1;exitX=1;exitY=0.5;exitDx=0;exitDy=0;endArrow=open;endFill=0;fontSize=12;fontColor=#000000;entryX=0;entryY=0.5;entryDx=0;entryDy=0;" parent="6_Ur4R1la_x42Wz0M2_A-1" source="V_jTfd3ySk3XdLUxlUWt-5" target="V_jTfd3ySk3XdLUxlUWt-20" edge="1">
                    <mxGeometry relative="1" as="geometry">
                        <mxPoint x="-640" y="474" as="targetPoint"/>
                    </mxGeometry>
                </mxCell>
                <mxCell id="V_jTfd3ySk3XdLUxlUWt-5" value="value" style="rounded=0;whiteSpace=wrap;html=1;strokeWidth=2;fontSize=17;fillColor=#d5e8d4;strokeColor=#82b366;" parent="6_Ur4R1la_x42Wz0M2_A-1" vertex="1">
                    <mxGeometry x="-780" y="661" width="40" height="48" as="geometry"/>
                </mxCell>
                <mxCell id="V_jTfd3ySk3XdLUxlUWt-14" value="beginRev" style="edgeStyle=orthogonalEdgeStyle;rounded=0;orthogonalLoop=1;jettySize=auto;html=1;exitX=1;exitY=0.5;exitDx=0;exitDy=0;entryX=0;entryY=0.5;entryDx=0;entryDy=0;endArrow=open;endFill=0;fontSize=12;" parent="6_Ur4R1la_x42Wz0M2_A-1" source="V_jTfd3ySk3XdLUxlUWt-13" target="ukDjIXnvPQXBdwwKgRzc-25" edge="1">
                    <mxGeometry relative="1" as="geometry"/>
                </mxCell>
                <mxCell id="V_jTfd3ySk3XdLUxlUWt-16" value="main = beginRev + 1" style="edgeStyle=orthogonalEdgeStyle;rounded=0;orthogonalLoop=1;jettySize=auto;html=1;exitX=0;exitY=0.5;exitDx=0;exitDy=0;dashed=1;endArrow=open;endFill=0;fontSize=12;entryX=1;entryY=0.25;entryDx=0;entryDy=0;fillColor=#f8cecc;fontColor=#F19C99;strokeColor=#F19C99;" parent="6_Ur4R1la_x42Wz0M2_A-1" source="V_jTfd3ySk3XdLUxlUWt-13" target="V_jTfd3ySk3XdLUxlUWt-18" edge="1">
                    <mxGeometry relative="1" as="geometry">
                        <mxPoint x="-580" y="554" as="targetPoint"/>
                    </mxGeometry>
                </mxCell>
                <mxCell id="V_jTfd3ySk3XdLUxlUWt-13" value="" style="rounded=0;whiteSpace=wrap;html=1;strokeWidth=2;fontSize=17;fillColor=#f8cecc;strokeColor=#b85450;" parent="6_Ur4R1la_x42Wz0M2_A-1" vertex="1">
                    <mxGeometry x="-490" y="520" width="40" height="48" as="geometry"/>
                </mxCell>
                <mxCell id="V_jTfd3ySk3XdLUxlUWt-24" style="edgeStyle=orthogonalEdgeStyle;rounded=0;orthogonalLoop=1;jettySize=auto;html=1;exitX=1;exitY=0.5;exitDx=0;exitDy=0;entryX=0;entryY=0.5;entryDx=0;entryDy=0;endArrow=open;endFill=0;fontSize=12;fontColor=#000000;" parent="6_Ur4R1la_x42Wz0M2_A-1" source="V_jTfd3ySk3XdLUxlUWt-18" target="V_jTfd3ySk3XdLUxlUWt-20" edge="1">
                    <mxGeometry relative="1" as="geometry"/>
                </mxCell>
                <mxCell id="V_jTfd3ySk3XdLUxlUWt-18" value="rev" style="rounded=0;whiteSpace=wrap;html=1;strokeWidth=2;fontSize=17;fillColor=#d5e8d4;strokeColor=#82b366;" parent="6_Ur4R1la_x42Wz0M2_A-1" vertex="1">
                    <mxGeometry x="-780" y="530" width="40" height="48" as="geometry"/>
                </mxCell>
                <mxCell id="V_jTfd3ySk3XdLUxlUWt-25" value="append" style="edgeStyle=orthogonalEdgeStyle;rounded=0;orthogonalLoop=1;jettySize=auto;html=1;exitX=1;exitY=0.5;exitDx=0;exitDy=0;entryX=0;entryY=0.5;entryDx=0;entryDy=0;endArrow=open;endFill=0;fontSize=12;dashed=1;strokeColor=#F19C99;fontColor=#F19C99;" parent="6_Ur4R1la_x42Wz0M2_A-1" source="V_jTfd3ySk3XdLUxlUWt-20" target="HSylud-aRqURHwG577-V-2" edge="1">
                    <mxGeometry x="0.1367" relative="1" as="geometry">
                        <mxPoint as="offset"/>
                    </mxGeometry>
                </mxCell>
                <mxCell id="V_jTfd3ySk3XdLUxlUWt-27" value="marshal" style="edgeStyle=orthogonalEdgeStyle;rounded=0;orthogonalLoop=1;jettySize=auto;html=1;exitX=0.5;exitY=1;exitDx=0;exitDy=0;entryX=0;entryY=0.5;entryDx=0;entryDy=0;dashed=1;endArrow=open;endFill=0;fontSize=12;fontColor=#F19C99;strokeColor=#F19C99;" parent="6_Ur4R1la_x42Wz0M2_A-1" source="V_jTfd3ySk3XdLUxlUWt-20" target="V_jTfd3ySk3XdLUxlUWt-26" edge="1">
                    <mxGeometry relative="1" as="geometry"/>
                </mxCell>
                <mxCell id="V_jTfd3ySk3XdLUxlUWt-29" value="Put" style="edgeStyle=orthogonalEdgeStyle;rounded=0;orthogonalLoop=1;jettySize=auto;html=1;exitX=0.5;exitY=0;exitDx=0;exitDy=0;entryX=0;entryY=0.5;entryDx=0;entryDy=0;dashed=1;endArrow=open;endFill=0;strokeColor=#F19C99;fontSize=12;fontColor=#F19C99;" parent="6_Ur4R1la_x42Wz0M2_A-1" source="V_jTfd3ySk3XdLUxlUWt-20" target="V_jTfd3ySk3XdLUxlUWt-0" edge="1">
                    <mxGeometry relative="1" as="geometry"/>
                </mxCell>
                <mxCell id="V_jTfd3ySk3XdLUxlUWt-20" value="KeyValue" style="rounded=0;whiteSpace=wrap;html=1;strokeWidth=2;fontSize=17;fillColor=#d5e8d4;strokeColor=#82b366;" parent="6_Ur4R1la_x42Wz0M2_A-1" vertex="1">
                    <mxGeometry x="-640" y="661" width="120" height="48" as="geometry"/>
                </mxCell>
                <mxCell id="V_jTfd3ySk3XdLUxlUWt-21" value="mvccpb" style="text;html=1;align=center;verticalAlign=middle;resizable=0;points=[];autosize=1;fontSize=12;fontColor=#000000;" parent="6_Ur4R1la_x42Wz0M2_A-1" vertex="1">
                    <mxGeometry x="-640" y="641" width="60" height="20" as="geometry"/>
                </mxCell>
                <mxCell id="V_jTfd3ySk3XdLUxlUWt-28" value="Put" style="edgeStyle=orthogonalEdgeStyle;rounded=0;orthogonalLoop=1;jettySize=auto;html=1;exitX=1;exitY=0.5;exitDx=0;exitDy=0;entryX=0.5;entryY=1;entryDx=0;entryDy=0;dashed=1;endArrow=open;endFill=0;fontSize=12;strokeColor=#F19C99;fontColor=#F19C99;" parent="6_Ur4R1la_x42Wz0M2_A-1" source="V_jTfd3ySk3XdLUxlUWt-26" target="ukDjIXnvPQXBdwwKgRzc-26" edge="1">
                    <mxGeometry relative="1" as="geometry"/>
                </mxCell>
                <mxCell id="V_jTfd3ySk3XdLUxlUWt-26" value="" style="rounded=0;whiteSpace=wrap;html=1;strokeWidth=2;fontSize=17;fillColor=#d5e8d4;strokeColor=#82b366;" parent="6_Ur4R1la_x42Wz0M2_A-1" vertex="1">
                    <mxGeometry x="-306" y="790" width="40" height="48" as="geometry"/>
                </mxCell>
            </root>
        </mxGraphModel>
    </diagram>
    <diagram id="QCsBZvAh9Z1pzHN1KPHr" name="notify">
        <mxGraphModel dx="936" dy="717" grid="1" gridSize="10" guides="1" tooltips="1" connect="1" arrows="1" fold="1" page="1" pageScale="1" pageWidth="827" pageHeight="1169" math="0" shadow="0">
            <root>
                <mxCell id="seNS2yqemGyLHLOqGMQA-0"/>
                <mxCell id="seNS2yqemGyLHLOqGMQA-1" parent="seNS2yqemGyLHLOqGMQA-0"/>
                <mxCell id="seNS2yqemGyLHLOqGMQA-79" value="fail" style="edgeStyle=orthogonalEdgeStyle;rounded=0;orthogonalLoop=1;jettySize=auto;html=1;exitX=0.5;exitY=0;exitDx=0;exitDy=0;entryX=0.5;entryY=1;entryDx=0;entryDy=0;dashed=1;endArrow=open;endFill=0;fontSize=12;" parent="seNS2yqemGyLHLOqGMQA-1" source="seNS2yqemGyLHLOqGMQA-77" target="seNS2yqemGyLHLOqGMQA-60" edge="1">
                    <mxGeometry relative="1" as="geometry"/>
                </mxCell>
                <mxCell id="seNS2yqemGyLHLOqGMQA-77" value="" style="rounded=0;whiteSpace=wrap;html=1;strokeWidth=2;fontSize=17;fillColor=none;dashed=1;" parent="seNS2yqemGyLHLOqGMQA-1" vertex="1">
                    <mxGeometry x="436" y="800" width="176" height="68" as="geometry"/>
                </mxCell>
                <mxCell id="seNS2yqemGyLHLOqGMQA-38" value="write" style="edgeStyle=orthogonalEdgeStyle;rounded=0;orthogonalLoop=1;jettySize=auto;html=1;exitX=0;exitY=0.5;exitDx=0;exitDy=0;entryX=1;entryY=0.5;entryDx=0;entryDy=0;endArrow=open;endFill=0;fontSize=12;dashed=1;" parent="seNS2yqemGyLHLOqGMQA-1" source="seNS2yqemGyLHLOqGMQA-3" target="seNS2yqemGyLHLOqGMQA-4" edge="1">
                    <mxGeometry relative="1" as="geometry"/>
                </mxCell>
                <mxCell id="seNS2yqemGyLHLOqGMQA-3" value="watchableStore" style="rounded=0;whiteSpace=wrap;html=1;strokeWidth=2;fontSize=17;fillColor=#d5e8d4;strokeColor=#82b366;" parent="seNS2yqemGyLHLOqGMQA-1" vertex="1">
                    <mxGeometry x="454" y="395" width="140" height="48" as="geometry"/>
                </mxCell>
                <mxCell id="seNS2yqemGyLHLOqGMQA-48" value="End" style="edgeStyle=orthogonalEdgeStyle;rounded=0;orthogonalLoop=1;jettySize=auto;html=1;exitX=0;exitY=0.5;exitDx=0;exitDy=0;entryX=0;entryY=0.5;entryDx=0;entryDy=0;dashed=1;endArrow=open;endFill=0;fontSize=12;" parent="seNS2yqemGyLHLOqGMQA-1" source="seNS2yqemGyLHLOqGMQA-4" target="seNS2yqemGyLHLOqGMQA-44" edge="1">
                    <mxGeometry relative="1" as="geometry"/>
                </mxCell>
                <mxCell id="seNS2yqemGyLHLOqGMQA-4" value="watchableStoreTxnWrite" style="rounded=0;whiteSpace=wrap;html=1;strokeWidth=2;fontSize=17;fillColor=#d5e8d4;strokeColor=#82b366;" parent="seNS2yqemGyLHLOqGMQA-1" vertex="1">
                    <mxGeometry x="80" y="395" width="200" height="48" as="geometry"/>
                </mxCell>
                <mxCell id="seNS2yqemGyLHLOqGMQA-39" style="edgeStyle=orthogonalEdgeStyle;rounded=0;orthogonalLoop=1;jettySize=auto;html=1;exitX=0.5;exitY=0;exitDx=0;exitDy=0;entryX=0.5;entryY=1;entryDx=0;entryDy=0;endArrow=block;endFill=0;fontSize=12;" parent="seNS2yqemGyLHLOqGMQA-1" source="seNS2yqemGyLHLOqGMQA-5" target="seNS2yqemGyLHLOqGMQA-4" edge="1">
                    <mxGeometry relative="1" as="geometry"/>
                </mxCell>
                <mxCell id="seNS2yqemGyLHLOqGMQA-5" value="TxnWrite" style="rounded=0;whiteSpace=wrap;html=1;strokeWidth=2;fontSize=17;dashed=1;fillColor=#e1d5e7;strokeColor=#9673a6;" parent="seNS2yqemGyLHLOqGMQA-1" vertex="1">
                    <mxGeometry x="120" y="530" width="120" height="48" as="geometry"/>
                </mxCell>
                <mxCell id="seNS2yqemGyLHLOqGMQA-45" style="edgeStyle=orthogonalEdgeStyle;rounded=0;orthogonalLoop=1;jettySize=auto;html=1;exitX=0.5;exitY=0;exitDx=0;exitDy=0;entryX=0;entryY=0.75;entryDx=0;entryDy=0;endArrow=open;endFill=0;fontSize=12;" parent="seNS2yqemGyLHLOqGMQA-1" source="seNS2yqemGyLHLOqGMQA-6" target="seNS2yqemGyLHLOqGMQA-3" edge="1">
                    <mxGeometry relative="1" as="geometry"/>
                </mxCell>
                <mxCell id="seNS2yqemGyLHLOqGMQA-50" style="edgeStyle=orthogonalEdgeStyle;rounded=0;orthogonalLoop=1;jettySize=auto;html=1;exitX=0.5;exitY=1;exitDx=0;exitDy=0;dashed=1;endArrow=open;endFill=0;fontSize=12;entryX=0.5;entryY=0;entryDx=0;entryDy=0;" parent="seNS2yqemGyLHLOqGMQA-1" source="seNS2yqemGyLHLOqGMQA-6" target="seNS2yqemGyLHLOqGMQA-51" edge="1">
                    <mxGeometry relative="1" as="geometry">
                        <mxPoint x="354" y="780" as="targetPoint"/>
                    </mxGeometry>
                </mxCell>
                <mxCell id="seNS2yqemGyLHLOqGMQA-6" value="&lt;span style=&quot;font-size: 17px;&quot;&gt;synced&lt;/span&gt;" style="rounded=0;whiteSpace=wrap;html=1;strokeWidth=2;fontSize=17;fillColor=#dae8fc;strokeColor=#6c8ebf;" parent="seNS2yqemGyLHLOqGMQA-1" vertex="1">
                    <mxGeometry x="293.5" y="530" width="120" height="48" as="geometry"/>
                </mxCell>
                <mxCell id="seNS2yqemGyLHLOqGMQA-14" value="" style="rounded=0;whiteSpace=wrap;html=1;strokeWidth=2;fontSize=17;fillColor=#ffe6cc;strokeColor=#d79b00;" parent="seNS2yqemGyLHLOqGMQA-1" vertex="1">
                    <mxGeometry x="60" y="270" width="40" height="48" as="geometry"/>
                </mxCell>
                <mxCell id="seNS2yqemGyLHLOqGMQA-15" value="" style="rounded=0;whiteSpace=wrap;html=1;strokeWidth=2;fontSize=17;fillColor=#dae8fc;strokeColor=#6c8ebf;" parent="seNS2yqemGyLHLOqGMQA-1" vertex="1">
                    <mxGeometry x="200" y="270" width="40" height="48" as="geometry"/>
                </mxCell>
                <mxCell id="seNS2yqemGyLHLOqGMQA-19" value="" style="rounded=0;whiteSpace=wrap;html=1;strokeWidth=2;fontSize=17;fillColor=#ffe6cc;strokeColor=#d79b00;" parent="seNS2yqemGyLHLOqGMQA-1" vertex="1">
                    <mxGeometry x="464" y="530" width="40" height="48" as="geometry"/>
                </mxCell>
                <mxCell id="seNS2yqemGyLHLOqGMQA-47" style="edgeStyle=orthogonalEdgeStyle;rounded=0;orthogonalLoop=1;jettySize=auto;html=1;exitX=0.5;exitY=0;exitDx=0;exitDy=0;entryX=0.5;entryY=1;entryDx=0;entryDy=0;endArrow=open;endFill=0;fontSize=12;" parent="seNS2yqemGyLHLOqGMQA-1" source="seNS2yqemGyLHLOqGMQA-20" target="seNS2yqemGyLHLOqGMQA-3" edge="1">
                    <mxGeometry relative="1" as="geometry"/>
                </mxCell>
                <mxCell id="seNS2yqemGyLHLOqGMQA-20" value="" style="rounded=0;whiteSpace=wrap;html=1;strokeWidth=2;fontSize=17;fillColor=#ffe6cc;strokeColor=#d79b00;" parent="seNS2yqemGyLHLOqGMQA-1" vertex="1">
                    <mxGeometry x="504" y="530" width="40" height="48" as="geometry"/>
                </mxCell>
                <mxCell id="seNS2yqemGyLHLOqGMQA-21" value="" style="rounded=0;whiteSpace=wrap;html=1;strokeWidth=2;fontSize=17;fillColor=#ffe6cc;strokeColor=#d79b00;" parent="seNS2yqemGyLHLOqGMQA-1" vertex="1">
                    <mxGeometry x="544" y="530" width="40" height="48" as="geometry"/>
                </mxCell>
                <mxCell id="seNS2yqemGyLHLOqGMQA-23" value="" style="rounded=0;whiteSpace=wrap;html=1;strokeWidth=2;fontSize=17;fillColor=#fff2cc;strokeColor=#d6b656;" parent="seNS2yqemGyLHLOqGMQA-1" vertex="1">
                    <mxGeometry x="340" y="270" width="40" height="48" as="geometry"/>
                </mxCell>
                <mxCell id="seNS2yqemGyLHLOqGMQA-24" value="watcher" style="text;html=1;align=center;verticalAlign=middle;resizable=0;points=[];autosize=1;fontSize=12;" parent="seNS2yqemGyLHLOqGMQA-1" vertex="1">
                    <mxGeometry x="380" y="284" width="60" height="20" as="geometry"/>
                </mxCell>
                <mxCell id="seNS2yqemGyLHLOqGMQA-25" value="watcherGroup" style="text;html=1;align=center;verticalAlign=middle;resizable=0;points=[];autosize=1;fontSize=12;" parent="seNS2yqemGyLHLOqGMQA-1" vertex="1">
                    <mxGeometry x="240" y="284" width="90" height="20" as="geometry"/>
                </mxCell>
                <mxCell id="seNS2yqemGyLHLOqGMQA-26" value="watcherBatch" style="text;html=1;align=center;verticalAlign=middle;resizable=0;points=[];autosize=1;fontSize=12;" parent="seNS2yqemGyLHLOqGMQA-1" vertex="1">
                    <mxGeometry x="100" y="284" width="90" height="20" as="geometry"/>
                </mxCell>
                <mxCell id="seNS2yqemGyLHLOqGMQA-28" value="eventBatch" style="text;html=1;align=center;verticalAlign=middle;resizable=0;points=[];autosize=1;fontSize=12;" parent="seNS2yqemGyLHLOqGMQA-1" vertex="1">
                    <mxGeometry x="490" y="284" width="80" height="20" as="geometry"/>
                </mxCell>
                <mxCell id="seNS2yqemGyLHLOqGMQA-30" value="" style="rounded=0;whiteSpace=wrap;html=1;strokeWidth=2;fontSize=17;fillColor=#f8cecc;strokeColor=#b85450;" parent="seNS2yqemGyLHLOqGMQA-1" vertex="1">
                    <mxGeometry x="450" y="270" width="40" height="48" as="geometry"/>
                </mxCell>
                <mxCell id="seNS2yqemGyLHLOqGMQA-37" value="victims" style="text;html=1;align=center;verticalAlign=middle;resizable=0;points=[];autosize=1;fontSize=12;" parent="seNS2yqemGyLHLOqGMQA-1" vertex="1">
                    <mxGeometry x="464" y="510" width="50" height="20" as="geometry"/>
                </mxCell>
                <mxCell id="seNS2yqemGyLHLOqGMQA-41" style="edgeStyle=orthogonalEdgeStyle;rounded=0;orthogonalLoop=1;jettySize=auto;html=1;exitX=0.5;exitY=0;exitDx=0;exitDy=0;entryX=0.5;entryY=1;entryDx=0;entryDy=0;endArrow=open;endFill=0;fontSize=12;" parent="seNS2yqemGyLHLOqGMQA-1" source="seNS2yqemGyLHLOqGMQA-40" target="seNS2yqemGyLHLOqGMQA-5" edge="1">
                    <mxGeometry relative="1" as="geometry"/>
                </mxCell>
                <mxCell id="seNS2yqemGyLHLOqGMQA-43" style="edgeStyle=orthogonalEdgeStyle;rounded=0;orthogonalLoop=1;jettySize=auto;html=1;exitX=0.5;exitY=1;exitDx=0;exitDy=0;endArrow=block;endFill=1;fontSize=12;dashed=1;" parent="seNS2yqemGyLHLOqGMQA-1" source="seNS2yqemGyLHLOqGMQA-40" target="seNS2yqemGyLHLOqGMQA-44" edge="1">
                    <mxGeometry relative="1" as="geometry">
                        <mxPoint x="180" y="800" as="targetPoint"/>
                    </mxGeometry>
                </mxCell>
                <mxCell id="seNS2yqemGyLHLOqGMQA-40" value="changes" style="rounded=0;whiteSpace=wrap;html=1;strokeWidth=2;fontSize=17;fillColor=#d5e8d4;strokeColor=#82b366;" parent="seNS2yqemGyLHLOqGMQA-1" vertex="1">
                    <mxGeometry x="120" y="660" width="120" height="48" as="geometry"/>
                </mxCell>
                <mxCell id="seNS2yqemGyLHLOqGMQA-52" style="edgeStyle=orthogonalEdgeStyle;rounded=0;orthogonalLoop=1;jettySize=auto;html=1;exitX=1;exitY=0.5;exitDx=0;exitDy=0;entryX=0.25;entryY=1;entryDx=0;entryDy=0;dashed=1;endArrow=open;endFill=0;fontSize=12;" parent="seNS2yqemGyLHLOqGMQA-1" source="seNS2yqemGyLHLOqGMQA-44" target="seNS2yqemGyLHLOqGMQA-6" edge="1">
                    <mxGeometry relative="1" as="geometry"/>
                </mxCell>
                <mxCell id="seNS2yqemGyLHLOqGMQA-44" value="mvccpb.Event" style="rounded=0;whiteSpace=wrap;html=1;strokeWidth=2;fontSize=17;fillColor=#d5e8d4;strokeColor=#82b366;" parent="seNS2yqemGyLHLOqGMQA-1" vertex="1">
                    <mxGeometry x="120" y="810" width="120" height="48" as="geometry"/>
                </mxCell>
                <mxCell id="seNS2yqemGyLHLOqGMQA-65" style="edgeStyle=orthogonalEdgeStyle;rounded=0;orthogonalLoop=1;jettySize=auto;html=1;exitX=1;exitY=0.5;exitDx=0;exitDy=0;entryX=0;entryY=0.5;entryDx=0;entryDy=0;endArrow=open;endFill=0;fontSize=12;" parent="seNS2yqemGyLHLOqGMQA-1" source="seNS2yqemGyLHLOqGMQA-51" target="seNS2yqemGyLHLOqGMQA-77" edge="1">
                    <mxGeometry relative="1" as="geometry">
                        <mxPoint x="430.5" y="834.095" as="targetPoint"/>
                    </mxGeometry>
                </mxCell>
                <mxCell id="seNS2yqemGyLHLOqGMQA-51" value="" style="rounded=0;whiteSpace=wrap;html=1;strokeWidth=2;fontSize=17;fillColor=#ffe6cc;strokeColor=#d79b00;" parent="seNS2yqemGyLHLOqGMQA-1" vertex="1">
                    <mxGeometry x="334" y="810" width="40" height="48" as="geometry"/>
                </mxCell>
                <mxCell id="seNS2yqemGyLHLOqGMQA-61" value="addVictim" style="edgeStyle=orthogonalEdgeStyle;rounded=0;orthogonalLoop=1;jettySize=auto;html=1;entryX=1;entryY=0.5;entryDx=0;entryDy=0;endArrow=open;endFill=0;fontSize=12;exitX=1;exitY=0.25;exitDx=0;exitDy=0;dashed=1;" parent="seNS2yqemGyLHLOqGMQA-1" source="seNS2yqemGyLHLOqGMQA-60" target="seNS2yqemGyLHLOqGMQA-21" edge="1">
                    <mxGeometry relative="1" as="geometry">
                        <mxPoint x="560" y="680" as="sourcePoint"/>
                    </mxGeometry>
                </mxCell>
                <mxCell id="seNS2yqemGyLHLOqGMQA-60" value="" style="rounded=0;whiteSpace=wrap;html=1;strokeWidth=2;fontSize=17;fillColor=#ffe6cc;strokeColor=#d79b00;" parent="seNS2yqemGyLHLOqGMQA-1" vertex="1">
                    <mxGeometry x="504" y="660" width="40" height="48" as="geometry"/>
                </mxCell>
                <mxCell id="seNS2yqemGyLHLOqGMQA-80" style="edgeStyle=orthogonalEdgeStyle;rounded=0;orthogonalLoop=1;jettySize=auto;html=1;exitX=0.5;exitY=0;exitDx=0;exitDy=0;entryX=0.5;entryY=1;entryDx=0;entryDy=0;endArrow=open;endFill=0;fontSize=12;" parent="seNS2yqemGyLHLOqGMQA-1" source="seNS2yqemGyLHLOqGMQA-71" target="seNS2yqemGyLHLOqGMQA-72" edge="1">
                    <mxGeometry relative="1" as="geometry"/>
                </mxCell>
                <mxCell id="seNS2yqemGyLHLOqGMQA-71" value="ch" style="shape=partialRectangle;whiteSpace=wrap;html=1;left=0;right=0;fillColor=none;strokeWidth=2;fontSize=17;" parent="seNS2yqemGyLHLOqGMQA-1" vertex="1">
                    <mxGeometry x="406" y="922.19" width="120" height="48" as="geometry"/>
                </mxCell>
                <mxCell id="seNS2yqemGyLHLOqGMQA-72" value="" style="rounded=0;whiteSpace=wrap;html=1;strokeWidth=2;fontSize=17;fillColor=#fff2cc;strokeColor=#d6b656;" parent="seNS2yqemGyLHLOqGMQA-1" vertex="1">
                    <mxGeometry x="446" y="810" width="40" height="48" as="geometry"/>
                </mxCell>
                <mxCell id="seNS2yqemGyLHLOqGMQA-81" value="send" style="edgeStyle=orthogonalEdgeStyle;rounded=0;orthogonalLoop=1;jettySize=auto;html=1;exitX=0.5;exitY=1;exitDx=0;exitDy=0;entryX=1;entryY=0.5;entryDx=0;entryDy=0;dashed=1;endArrow=open;endFill=0;fontSize=12;" parent="seNS2yqemGyLHLOqGMQA-1" source="seNS2yqemGyLHLOqGMQA-73" target="seNS2yqemGyLHLOqGMQA-71" edge="1">
                    <mxGeometry relative="1" as="geometry"/>
                </mxCell>
                <mxCell id="seNS2yqemGyLHLOqGMQA-73" value="" style="rounded=0;whiteSpace=wrap;html=1;strokeWidth=2;fontSize=17;fillColor=#f8cecc;strokeColor=#b85450;" parent="seNS2yqemGyLHLOqGMQA-1" vertex="1">
                    <mxGeometry x="566" y="810" width="40" height="48" as="geometry"/>
                </mxCell>
                <mxCell id="seNS2yqemGyLHLOqGMQA-78" value="map" style="edgeStyle=orthogonalEdgeStyle;rounded=0;orthogonalLoop=1;jettySize=auto;html=1;exitX=1;exitY=0.5;exitDx=0;exitDy=0;entryX=0;entryY=0.5;entryDx=0;entryDy=0;endArrow=open;endFill=0;fontSize=12;" parent="seNS2yqemGyLHLOqGMQA-1" source="seNS2yqemGyLHLOqGMQA-72" target="seNS2yqemGyLHLOqGMQA-73" edge="1">
                    <mxGeometry relative="1" as="geometry">
                        <mxPoint x="486" y="834" as="sourcePoint"/>
                        <mxPoint x="566" y="834" as="targetPoint"/>
                    </mxGeometry>
                </mxCell>
            </root>
        </mxGraphModel>
    </diagram>
    <diagram id="d4i3gTVEgxadlMLa8w_h" name="syncVictimsLoop">
        <mxGraphModel dx="1763" dy="717" grid="1" gridSize="10" guides="1" tooltips="1" connect="1" arrows="1" fold="1" page="1" pageScale="1" pageWidth="827" pageHeight="1169" math="0" shadow="0">
            <root>
                <mxCell id="lA7I29VeI6CnyaXN9RFx-0"/>
                <mxCell id="lA7I29VeI6CnyaXN9RFx-1" parent="lA7I29VeI6CnyaXN9RFx-0"/>
                <mxCell id="4yz8BTXqfFHkBtD9C5xJ-15" value="" style="rounded=0;whiteSpace=wrap;html=1;strokeWidth=2;fontSize=17;fillColor=none;dashed=1;" parent="lA7I29VeI6CnyaXN9RFx-1" vertex="1">
                    <mxGeometry x="149" y="485" width="530" height="369" as="geometry"/>
                </mxCell>
                <mxCell id="9P80mgbF417xRof08vT1-0" value="" style="rounded=0;whiteSpace=wrap;html=1;strokeWidth=2;fontSize=17;fillColor=#ffe6cc;strokeColor=#d79b00;" parent="lA7I29VeI6CnyaXN9RFx-1" vertex="1">
                    <mxGeometry x="44" y="280" width="40" height="48" as="geometry"/>
                </mxCell>
                <mxCell id="9P80mgbF417xRof08vT1-2" value="" style="rounded=0;whiteSpace=wrap;html=1;strokeWidth=2;fontSize=17;fillColor=#fff2cc;strokeColor=#d6b656;" parent="lA7I29VeI6CnyaXN9RFx-1" vertex="1">
                    <mxGeometry x="184" y="280" width="40" height="48" as="geometry"/>
                </mxCell>
                <mxCell id="9P80mgbF417xRof08vT1-3" value="watcher" style="text;html=1;align=center;verticalAlign=middle;resizable=0;points=[];autosize=1;fontSize=12;" parent="lA7I29VeI6CnyaXN9RFx-1" vertex="1">
                    <mxGeometry x="224" y="294" width="60" height="20" as="geometry"/>
                </mxCell>
                <mxCell id="9P80mgbF417xRof08vT1-5" value="watcherBatch" style="text;html=1;align=center;verticalAlign=middle;resizable=0;points=[];autosize=1;fontSize=12;" parent="lA7I29VeI6CnyaXN9RFx-1" vertex="1">
                    <mxGeometry x="84" y="294" width="90" height="20" as="geometry"/>
                </mxCell>
                <mxCell id="9P80mgbF417xRof08vT1-6" value="eventBatch" style="text;html=1;align=center;verticalAlign=middle;resizable=0;points=[];autosize=1;fontSize=12;" parent="lA7I29VeI6CnyaXN9RFx-1" vertex="1">
                    <mxGeometry x="334" y="294" width="80" height="20" as="geometry"/>
                </mxCell>
                <mxCell id="9P80mgbF417xRof08vT1-7" value="" style="rounded=0;whiteSpace=wrap;html=1;strokeWidth=2;fontSize=17;fillColor=#f8cecc;strokeColor=#b85450;" parent="lA7I29VeI6CnyaXN9RFx-1" vertex="1">
                    <mxGeometry x="294" y="280" width="40" height="48" as="geometry"/>
                </mxCell>
                <mxCell id="xNJFfzpSgGwgCvLSVgfI-0" value="watchableStore" style="rounded=0;whiteSpace=wrap;html=1;strokeWidth=2;fontSize=17;fillColor=#d5e8d4;strokeColor=#82b366;" parent="lA7I29VeI6CnyaXN9RFx-1" vertex="1">
                    <mxGeometry x="330.5" y="390" width="140" height="48" as="geometry"/>
                </mxCell>
                <mxCell id="4yz8BTXqfFHkBtD9C5xJ-7" value="range" style="edgeStyle=orthogonalEdgeStyle;rounded=0;orthogonalLoop=1;jettySize=auto;html=1;exitX=0.5;exitY=1;exitDx=0;exitDy=0;entryX=0.5;entryY=0;entryDx=0;entryDy=0;endArrow=open;endFill=0;fontSize=14;" parent="lA7I29VeI6CnyaXN9RFx-1" source="xNJFfzpSgGwgCvLSVgfI-3" target="4yz8BTXqfFHkBtD9C5xJ-0" edge="1">
                    <mxGeometry relative="1" as="geometry"/>
                </mxCell>
                <mxCell id="xNJFfzpSgGwgCvLSVgfI-3" value="" style="rounded=0;whiteSpace=wrap;html=1;strokeWidth=2;fontSize=17;fillColor=#ffe6cc;strokeColor=#d79b00;" parent="lA7I29VeI6CnyaXN9RFx-1" vertex="1">
                    <mxGeometry x="340.5" y="505" width="40" height="48" as="geometry"/>
                </mxCell>
                <mxCell id="xNJFfzpSgGwgCvLSVgfI-4" style="edgeStyle=orthogonalEdgeStyle;rounded=0;orthogonalLoop=1;jettySize=auto;html=1;exitX=0.5;exitY=0;exitDx=0;exitDy=0;entryX=0.5;entryY=1;entryDx=0;entryDy=0;endArrow=open;endFill=0;fontSize=12;" parent="lA7I29VeI6CnyaXN9RFx-1" source="xNJFfzpSgGwgCvLSVgfI-5" target="xNJFfzpSgGwgCvLSVgfI-0" edge="1">
                    <mxGeometry relative="1" as="geometry"/>
                </mxCell>
                <mxCell id="xNJFfzpSgGwgCvLSVgfI-5" value="" style="rounded=0;whiteSpace=wrap;html=1;strokeWidth=2;fontSize=17;fillColor=#ffe6cc;strokeColor=#d79b00;" parent="lA7I29VeI6CnyaXN9RFx-1" vertex="1">
                    <mxGeometry x="380.5" y="505" width="40" height="48" as="geometry"/>
                </mxCell>
                <mxCell id="xNJFfzpSgGwgCvLSVgfI-6" value="" style="rounded=0;whiteSpace=wrap;html=1;strokeWidth=2;fontSize=17;fillColor=#ffe6cc;strokeColor=#d79b00;" parent="lA7I29VeI6CnyaXN9RFx-1" vertex="1">
                    <mxGeometry x="420.5" y="505" width="40" height="48" as="geometry"/>
                </mxCell>
                <mxCell id="xNJFfzpSgGwgCvLSVgfI-7" value="victims" style="text;html=1;align=center;verticalAlign=middle;resizable=0;points=[];autosize=1;fontSize=12;" parent="lA7I29VeI6CnyaXN9RFx-1" vertex="1">
                    <mxGeometry x="340.5" y="485" width="50" height="20" as="geometry"/>
                </mxCell>
                <mxCell id="jecQ9Fo7KVxIMYK1F6le-1" style="edgeStyle=orthogonalEdgeStyle;rounded=0;orthogonalLoop=1;jettySize=auto;html=1;endArrow=open;endFill=0;fontSize=17;entryX=0;entryY=0.5;entryDx=0;entryDy=0;dashed=1;" parent="lA7I29VeI6CnyaXN9RFx-1" target="jecQ9Fo7KVxIMYK1F6le-0" edge="1">
                    <mxGeometry relative="1" as="geometry">
                        <mxPoint x="-240" y="513" as="targetPoint"/>
                        <mxPoint x="-160" y="577" as="sourcePoint"/>
                    </mxGeometry>
                </mxCell>
                <mxCell id="jecQ9Fo7KVxIMYK1F6le-4" value="addVictim" style="edgeLabel;html=1;align=center;verticalAlign=middle;resizable=0;points=[];fontSize=12;" parent="jecQ9Fo7KVxIMYK1F6le-1" vertex="1" connectable="0">
                    <mxGeometry x="-0.2545" y="-4" relative="1" as="geometry">
                        <mxPoint x="9" y="-4" as="offset"/>
                    </mxGeometry>
                </mxCell>
                <mxCell id="4yz8BTXqfFHkBtD9C5xJ-16" style="edgeStyle=orthogonalEdgeStyle;rounded=0;orthogonalLoop=1;jettySize=auto;html=1;exitX=1;exitY=0.5;exitDx=0;exitDy=0;entryX=0;entryY=0.25;entryDx=0;entryDy=0;endArrow=open;endFill=0;fontSize=14;dashed=1;" parent="lA7I29VeI6CnyaXN9RFx-1" source="jecQ9Fo7KVxIMYK1F6le-0" target="4yz8BTXqfFHkBtD9C5xJ-15" edge="1">
                    <mxGeometry relative="1" as="geometry"/>
                </mxCell>
                <mxCell id="jecQ9Fo7KVxIMYK1F6le-0" value="victimc" style="shape=partialRectangle;whiteSpace=wrap;html=1;left=0;right=0;fillColor=#e1d5e7;strokeWidth=2;fontSize=17;strokeColor=#9673a6;" parent="lA7I29VeI6CnyaXN9RFx-1" vertex="1">
                    <mxGeometry x="-50" y="553" width="120" height="48" as="geometry"/>
                </mxCell>
                <mxCell id="4yz8BTXqfFHkBtD9C5xJ-8" value="" style="group" parent="lA7I29VeI6CnyaXN9RFx-1" vertex="1" connectable="0">
                    <mxGeometry x="240" y="660" width="208.5" height="170.19000000000005" as="geometry"/>
                </mxCell>
                <mxCell id="4yz8BTXqfFHkBtD9C5xJ-0" value="" style="rounded=0;whiteSpace=wrap;html=1;strokeWidth=2;fontSize=17;fillColor=none;dashed=1;" parent="4yz8BTXqfFHkBtD9C5xJ-8" vertex="1">
                    <mxGeometry x="32.5" width="176" height="68" as="geometry"/>
                </mxCell>
                <mxCell id="4yz8BTXqfFHkBtD9C5xJ-2" value="ch" style="shape=partialRectangle;whiteSpace=wrap;html=1;left=0;right=0;fillColor=#e1d5e7;strokeWidth=2;fontSize=17;strokeColor=#9673a6;" parent="4yz8BTXqfFHkBtD9C5xJ-8" vertex="1">
                    <mxGeometry y="122.19000000000005" width="120" height="48" as="geometry"/>
                </mxCell>
                <mxCell id="4yz8BTXqfFHkBtD9C5xJ-3" value="" style="rounded=0;whiteSpace=wrap;html=1;strokeWidth=2;fontSize=17;fillColor=#fff2cc;strokeColor=#d6b656;" parent="4yz8BTXqfFHkBtD9C5xJ-8" vertex="1">
                    <mxGeometry x="40" y="10" width="40" height="48" as="geometry"/>
                </mxCell>
                <mxCell id="4yz8BTXqfFHkBtD9C5xJ-1" style="edgeStyle=orthogonalEdgeStyle;rounded=0;orthogonalLoop=1;jettySize=auto;html=1;exitX=0.5;exitY=0;exitDx=0;exitDy=0;entryX=0.5;entryY=1;entryDx=0;entryDy=0;endArrow=open;endFill=0;fontSize=12;" parent="4yz8BTXqfFHkBtD9C5xJ-8" source="4yz8BTXqfFHkBtD9C5xJ-2" target="4yz8BTXqfFHkBtD9C5xJ-3" edge="1">
                    <mxGeometry relative="1" as="geometry"/>
                </mxCell>
                <mxCell id="4yz8BTXqfFHkBtD9C5xJ-4" value="send" style="edgeStyle=orthogonalEdgeStyle;rounded=0;orthogonalLoop=1;jettySize=auto;html=1;exitX=0.5;exitY=1;exitDx=0;exitDy=0;entryX=1;entryY=0.5;entryDx=0;entryDy=0;dashed=1;endArrow=open;endFill=0;fontSize=12;" parent="4yz8BTXqfFHkBtD9C5xJ-8" source="4yz8BTXqfFHkBtD9C5xJ-5" target="4yz8BTXqfFHkBtD9C5xJ-2" edge="1">
                    <mxGeometry relative="1" as="geometry"/>
                </mxCell>
                <mxCell id="4yz8BTXqfFHkBtD9C5xJ-5" value="" style="rounded=0;whiteSpace=wrap;html=1;strokeWidth=2;fontSize=17;fillColor=#f8cecc;strokeColor=#b85450;" parent="4yz8BTXqfFHkBtD9C5xJ-8" vertex="1">
                    <mxGeometry x="160" y="10" width="40" height="48" as="geometry"/>
                </mxCell>
                <mxCell id="4yz8BTXqfFHkBtD9C5xJ-6" value="map" style="edgeStyle=orthogonalEdgeStyle;rounded=0;orthogonalLoop=1;jettySize=auto;html=1;exitX=1;exitY=0.5;exitDx=0;exitDy=0;entryX=0;entryY=0.5;entryDx=0;entryDy=0;endArrow=open;endFill=0;fontSize=12;" parent="4yz8BTXqfFHkBtD9C5xJ-8" source="4yz8BTXqfFHkBtD9C5xJ-3" target="4yz8BTXqfFHkBtD9C5xJ-5" edge="1">
                    <mxGeometry x="0.0625" relative="1" as="geometry">
                        <mxPoint x="80" y="34" as="sourcePoint"/>
                        <mxPoint x="160" y="34" as="targetPoint"/>
                        <mxPoint as="offset"/>
                    </mxGeometry>
                </mxCell>
                <mxCell id="4yz8BTXqfFHkBtD9C5xJ-11" value="append" style="edgeStyle=orthogonalEdgeStyle;rounded=0;orthogonalLoop=1;jettySize=auto;html=1;exitX=0.5;exitY=0;exitDx=0;exitDy=0;entryX=1;entryY=0.5;entryDx=0;entryDy=0;endArrow=open;endFill=0;fontSize=14;dashed=1;" parent="lA7I29VeI6CnyaXN9RFx-1" source="4yz8BTXqfFHkBtD9C5xJ-9" target="xNJFfzpSgGwgCvLSVgfI-6" edge="1">
                    <mxGeometry relative="1" as="geometry"/>
                </mxCell>
                <mxCell id="4yz8BTXqfFHkBtD9C5xJ-9" value="" style="rounded=0;whiteSpace=wrap;html=1;strokeWidth=2;fontSize=17;fillColor=#ffe6cc;strokeColor=#d79b00;" parent="lA7I29VeI6CnyaXN9RFx-1" vertex="1">
                    <mxGeometry x="540" y="653" width="40" height="48" as="geometry"/>
                </mxCell>
                <mxCell id="4yz8BTXqfFHkBtD9C5xJ-10" value="fail" style="edgeStyle=orthogonalEdgeStyle;rounded=0;orthogonalLoop=1;jettySize=auto;html=1;exitX=1;exitY=0.25;exitDx=0;exitDy=0;entryX=0;entryY=0.5;entryDx=0;entryDy=0;endArrow=open;endFill=0;fontSize=14;dashed=1;" parent="lA7I29VeI6CnyaXN9RFx-1" source="4yz8BTXqfFHkBtD9C5xJ-0" target="4yz8BTXqfFHkBtD9C5xJ-9" edge="1">
                    <mxGeometry relative="1" as="geometry"/>
                </mxCell>
                <mxCell id="4yz8BTXqfFHkBtD9C5xJ-17" value="moved != 0" style="edgeStyle=orthogonalEdgeStyle;rounded=0;orthogonalLoop=1;jettySize=auto;html=1;exitX=0;exitY=0.5;exitDx=0;exitDy=0;endArrow=open;endFill=0;fontSize=14;entryX=0;entryY=0.75;entryDx=0;entryDy=0;dashed=1;" parent="lA7I29VeI6CnyaXN9RFx-1" source="4yz8BTXqfFHkBtD9C5xJ-12" target="4yz8BTXqfFHkBtD9C5xJ-15" edge="1">
                    <mxGeometry relative="1" as="geometry">
                        <mxPoint x="-50" y="900" as="targetPoint"/>
                        <Array as="points">
                            <mxPoint x="80" y="904"/>
                            <mxPoint x="80" y="762"/>
                        </Array>
                    </mxGeometry>
                </mxCell>
                <mxCell id="4yz8BTXqfFHkBtD9C5xJ-12" value="moved++" style="rounded=0;whiteSpace=wrap;html=1;strokeWidth=2;fontSize=17;fillColor=#d5e8d4;strokeColor=#82b366;" parent="lA7I29VeI6CnyaXN9RFx-1" vertex="1">
                    <mxGeometry x="510" y="880" width="100" height="48" as="geometry"/>
                </mxCell>
                <mxCell id="4yz8BTXqfFHkBtD9C5xJ-13" value="succedd" style="edgeStyle=orthogonalEdgeStyle;rounded=0;orthogonalLoop=1;jettySize=auto;html=1;exitX=1;exitY=0.75;exitDx=0;exitDy=0;entryX=0.5;entryY=0;entryDx=0;entryDy=0;endArrow=open;endFill=0;fontSize=14;dashed=1;" parent="lA7I29VeI6CnyaXN9RFx-1" source="4yz8BTXqfFHkBtD9C5xJ-0" target="4yz8BTXqfFHkBtD9C5xJ-12" edge="1">
                    <mxGeometry x="0.2157" relative="1" as="geometry">
                        <mxPoint as="offset"/>
                    </mxGeometry>
                </mxCell>
                <mxCell id="4yz8BTXqfFHkBtD9C5xJ-22" style="edgeStyle=orthogonalEdgeStyle;rounded=0;orthogonalLoop=1;jettySize=auto;html=1;exitX=1;exitY=0.5;exitDx=0;exitDy=0;entryX=0;entryY=0.5;entryDx=0;entryDy=0;endArrow=open;endFill=0;fontSize=14;dashed=1;" parent="lA7I29VeI6CnyaXN9RFx-1" source="4yz8BTXqfFHkBtD9C5xJ-19" target="4yz8BTXqfFHkBtD9C5xJ-15" edge="1">
                    <mxGeometry relative="1" as="geometry"/>
                </mxCell>
                <mxCell id="4yz8BTXqfFHkBtD9C5xJ-19" value="tickc" style="shape=partialRectangle;whiteSpace=wrap;html=1;left=0;right=0;fillColor=#e1d5e7;strokeWidth=2;fontSize=17;strokeColor=#9673a6;" parent="lA7I29VeI6CnyaXN9RFx-1" vertex="1">
                    <mxGeometry x="-50" y="646" width="120" height="48" as="geometry"/>
                </mxCell>
                <mxCell id="4yz8BTXqfFHkBtD9C5xJ-20" value="10ms" style="text;html=1;align=center;verticalAlign=middle;resizable=0;points=[];autosize=1;fontSize=14;" parent="lA7I29VeI6CnyaXN9RFx-1" vertex="1">
                    <mxGeometry x="-50" y="626" width="50" height="20" as="geometry"/>
                </mxCell>
                <mxCell id="4yz8BTXqfFHkBtD9C5xJ-23" value="len(victims) != 0" style="endArrow=open;html=1;fontSize=12;entryX=0;entryY=0.5;entryDx=0;entryDy=0;endFill=0;dashed=1;" parent="lA7I29VeI6CnyaXN9RFx-1" target="4yz8BTXqfFHkBtD9C5xJ-19" edge="1">
                    <mxGeometry x="-0.0909" width="50" height="50" relative="1" as="geometry">
                        <mxPoint x="-160" y="670" as="sourcePoint"/>
                        <mxPoint x="470" y="580" as="targetPoint"/>
                        <mxPoint as="offset"/>
                    </mxGeometry>
                </mxCell>
            </root>
        </mxGraphModel>
    </diagram>
    <diagram id="Lrrh-PYib9Fl7nbWvQII" name="syncWatcherLoop">
        <mxGraphModel dx="1763" dy="717" grid="1" gridSize="10" guides="1" tooltips="1" connect="1" arrows="1" fold="1" page="1" pageScale="1" pageWidth="827" pageHeight="1169" math="0" shadow="0">
            <root>
                <mxCell id="M8WXcKTAEYLaZ2FDTzNW-0"/>
                <mxCell id="M8WXcKTAEYLaZ2FDTzNW-1" parent="M8WXcKTAEYLaZ2FDTzNW-0"/>
                <mxCell id="M8WXcKTAEYLaZ2FDTzNW-2" value="" style="rounded=0;whiteSpace=wrap;html=1;strokeWidth=2;fontSize=17;fillColor=#ffe6cc;strokeColor=#d79b00;" parent="M8WXcKTAEYLaZ2FDTzNW-1" vertex="1">
                    <mxGeometry x="-450" y="300" width="40" height="48" as="geometry"/>
                </mxCell>
                <mxCell id="M8WXcKTAEYLaZ2FDTzNW-3" value="" style="rounded=0;whiteSpace=wrap;html=1;strokeWidth=2;fontSize=17;fillColor=#dae8fc;strokeColor=#6c8ebf;" parent="M8WXcKTAEYLaZ2FDTzNW-1" vertex="1">
                    <mxGeometry x="-310" y="300" width="40" height="48" as="geometry"/>
                </mxCell>
                <mxCell id="M8WXcKTAEYLaZ2FDTzNW-4" value="" style="rounded=0;whiteSpace=wrap;html=1;strokeWidth=2;fontSize=17;fillColor=#fff2cc;strokeColor=#d6b656;" parent="M8WXcKTAEYLaZ2FDTzNW-1" vertex="1">
                    <mxGeometry x="-170" y="300" width="40" height="48" as="geometry"/>
                </mxCell>
                <mxCell id="M8WXcKTAEYLaZ2FDTzNW-5" value="watcher" style="text;html=1;align=center;verticalAlign=middle;resizable=0;points=[];autosize=1;fontSize=12;" parent="M8WXcKTAEYLaZ2FDTzNW-1" vertex="1">
                    <mxGeometry x="-130" y="314" width="60" height="20" as="geometry"/>
                </mxCell>
                <mxCell id="M8WXcKTAEYLaZ2FDTzNW-6" value="watcherGroup" style="text;html=1;align=center;verticalAlign=middle;resizable=0;points=[];autosize=1;fontSize=12;" parent="M8WXcKTAEYLaZ2FDTzNW-1" vertex="1">
                    <mxGeometry x="-270" y="314" width="90" height="20" as="geometry"/>
                </mxCell>
                <mxCell id="M8WXcKTAEYLaZ2FDTzNW-7" value="watchBatch" style="text;html=1;align=center;verticalAlign=middle;resizable=0;points=[];autosize=1;fontSize=12;" parent="M8WXcKTAEYLaZ2FDTzNW-1" vertex="1">
                    <mxGeometry x="-405" y="314" width="80" height="20" as="geometry"/>
                </mxCell>
                <mxCell id="M8WXcKTAEYLaZ2FDTzNW-9" value="" style="rounded=0;whiteSpace=wrap;html=1;strokeWidth=2;fontSize=17;fillColor=#f8cecc;strokeColor=#b85450;" parent="M8WXcKTAEYLaZ2FDTzNW-1" vertex="1">
                    <mxGeometry x="-60" y="300" width="40" height="48" as="geometry"/>
                </mxCell>
                <mxCell id="7RdFxD02PU-iL3NIl16g-1" style="edgeStyle=orthogonalEdgeStyle;rounded=0;orthogonalLoop=1;jettySize=auto;html=1;exitX=0;exitY=0.5;exitDx=0;exitDy=0;entryX=0.5;entryY=0;entryDx=0;entryDy=0;endArrow=open;endFill=0;fontSize=12;" parent="M8WXcKTAEYLaZ2FDTzNW-1" source="lcsxK0AHdSqDjtAuWHKQ-0" target="7RdFxD02PU-iL3NIl16g-0" edge="1">
                    <mxGeometry relative="1" as="geometry"/>
                </mxCell>
                <mxCell id="7RdFxD02PU-iL3NIl16g-3" style="edgeStyle=orthogonalEdgeStyle;rounded=0;orthogonalLoop=1;jettySize=auto;html=1;entryX=0.5;entryY=0;entryDx=0;entryDy=0;endArrow=open;endFill=0;fontSize=12;exitX=0.5;exitY=1;exitDx=0;exitDy=0;" parent="M8WXcKTAEYLaZ2FDTzNW-1" source="lcsxK0AHdSqDjtAuWHKQ-0" target="7RdFxD02PU-iL3NIl16g-2" edge="1">
                    <mxGeometry relative="1" as="geometry">
                        <mxPoint x="145" y="490" as="sourcePoint"/>
                    </mxGeometry>
                </mxCell>
                <mxCell id="Omar38r_G6y8Ur-GSmrl-2" style="edgeStyle=orthogonalEdgeStyle;rounded=0;orthogonalLoop=1;jettySize=auto;html=1;exitX=1;exitY=0.5;exitDx=0;exitDy=0;endArrow=open;endFill=0;fontSize=12;fontColor=#000000;entryX=0.5;entryY=0;entryDx=0;entryDy=0;" parent="M8WXcKTAEYLaZ2FDTzNW-1" source="lcsxK0AHdSqDjtAuWHKQ-0" target="Omar38r_G6y8Ur-GSmrl-4" edge="1">
                    <mxGeometry relative="1" as="geometry">
                        <mxPoint x="540" y="484" as="targetPoint"/>
                    </mxGeometry>
                </mxCell>
                <mxCell id="lcsxK0AHdSqDjtAuWHKQ-0" value="watchableStore" style="rounded=0;whiteSpace=wrap;html=1;strokeWidth=2;fontSize=17;fillColor=#d5e8d4;strokeColor=#82b366;" parent="M8WXcKTAEYLaZ2FDTzNW-1" vertex="1">
                    <mxGeometry x="120" y="480" width="140" height="48" as="geometry"/>
                </mxCell>
                <mxCell id="UKZuX4cfnr2A_XQqYG1o-2" value="choose" style="edgeStyle=orthogonalEdgeStyle;rounded=0;orthogonalLoop=1;jettySize=auto;html=1;exitX=0.5;exitY=1;exitDx=0;exitDy=0;entryX=0.5;entryY=0;entryDx=0;entryDy=0;endArrow=open;endFill=0;fontSize=12;" parent="M8WXcKTAEYLaZ2FDTzNW-1" source="7RdFxD02PU-iL3NIl16g-0" target="UKZuX4cfnr2A_XQqYG1o-1" edge="1">
                    <mxGeometry relative="1" as="geometry"/>
                </mxCell>
                <mxCell id="7RdFxD02PU-iL3NIl16g-0" value="&lt;span style=&quot;font-size: 17px&quot;&gt;unsynced&lt;/span&gt;" style="rounded=0;whiteSpace=wrap;html=1;strokeWidth=2;fontSize=17;fillColor=#dae8fc;strokeColor=#6c8ebf;" parent="M8WXcKTAEYLaZ2FDTzNW-1" vertex="1">
                    <mxGeometry x="-290" y="561" width="120" height="48" as="geometry"/>
                </mxCell>
                <mxCell id="7RdFxD02PU-iL3NIl16g-2" value="&lt;span style=&quot;font-size: 17px&quot;&gt;synced&lt;/span&gt;" style="rounded=0;whiteSpace=wrap;html=1;strokeWidth=2;fontSize=17;fillColor=#dae8fc;strokeColor=#6c8ebf;" parent="M8WXcKTAEYLaZ2FDTzNW-1" vertex="1">
                    <mxGeometry x="130" y="561" width="120" height="48" as="geometry"/>
                </mxCell>
                <mxCell id="UKZuX4cfnr2A_XQqYG1o-18" style="edgeStyle=orthogonalEdgeStyle;rounded=0;orthogonalLoop=1;jettySize=auto;html=1;exitX=1;exitY=0.5;exitDx=0;exitDy=0;entryX=0;entryY=0.5;entryDx=0;entryDy=0;endArrow=open;endFill=0;fontSize=12;" parent="M8WXcKTAEYLaZ2FDTzNW-1" source="UKZuX4cfnr2A_XQqYG1o-0" target="UKZuX4cfnr2A_XQqYG1o-9" edge="1">
                    <mxGeometry relative="1" as="geometry"/>
                </mxCell>
                <mxCell id="UKZuX4cfnr2A_XQqYG1o-19" style="edgeStyle=orthogonalEdgeStyle;rounded=0;orthogonalLoop=1;jettySize=auto;html=1;exitX=1;exitY=0.5;exitDx=0;exitDy=0;entryX=0;entryY=0.5;entryDx=0;entryDy=0;endArrow=open;endFill=0;fontSize=12;" parent="M8WXcKTAEYLaZ2FDTzNW-1" source="UKZuX4cfnr2A_XQqYG1o-0" target="UKZuX4cfnr2A_XQqYG1o-14" edge="1">
                    <mxGeometry relative="1" as="geometry"/>
                </mxCell>
                <mxCell id="UKZuX4cfnr2A_XQqYG1o-0" value="store" style="rounded=0;whiteSpace=wrap;html=1;strokeWidth=2;fontSize=17;fillColor=#d5e8d4;strokeColor=#82b366;" parent="M8WXcKTAEYLaZ2FDTzNW-1" vertex="1">
                    <mxGeometry x="-290" y="820" width="100" height="48" as="geometry"/>
                </mxCell>
                <mxCell id="UKZuX4cfnr2A_XQqYG1o-28" style="edgeStyle=orthogonalEdgeStyle;rounded=0;orthogonalLoop=1;jettySize=auto;html=1;exitX=0;exitY=0.5;exitDx=0;exitDy=0;entryX=0.5;entryY=0;entryDx=0;entryDy=0;endArrow=open;endFill=0;fontSize=12;" parent="M8WXcKTAEYLaZ2FDTzNW-1" source="UKZuX4cfnr2A_XQqYG1o-1" target="UKZuX4cfnr2A_XQqYG1o-3" edge="1">
                    <mxGeometry relative="1" as="geometry"/>
                </mxCell>
                <mxCell id="UKZuX4cfnr2A_XQqYG1o-37" style="edgeStyle=orthogonalEdgeStyle;rounded=0;orthogonalLoop=1;jettySize=auto;html=1;exitX=1;exitY=0.75;exitDx=0;exitDy=0;entryX=0;entryY=0.25;entryDx=0;entryDy=0;endArrow=open;endFill=0;fontSize=12;" parent="M8WXcKTAEYLaZ2FDTzNW-1" source="UKZuX4cfnr2A_XQqYG1o-1" target="UKZuX4cfnr2A_XQqYG1o-36" edge="1">
                    <mxGeometry relative="1" as="geometry"/>
                </mxCell>
                <mxCell id="KmnDq4LYQ-1ZPicQLGQA-2" value="range" style="edgeStyle=orthogonalEdgeStyle;rounded=0;orthogonalLoop=1;jettySize=auto;html=1;exitX=1;exitY=0.25;exitDx=0;exitDy=0;entryX=0.5;entryY=1;entryDx=0;entryDy=0;dashed=1;endArrow=open;endFill=0;fontSize=12;" parent="M8WXcKTAEYLaZ2FDTzNW-1" source="UKZuX4cfnr2A_XQqYG1o-1" target="KmnDq4LYQ-1ZPicQLGQA-1" edge="1">
                    <mxGeometry relative="1" as="geometry"/>
                </mxCell>
                <mxCell id="UKZuX4cfnr2A_XQqYG1o-1" value="" style="rounded=0;whiteSpace=wrap;html=1;strokeWidth=2;fontSize=17;fillColor=#dae8fc;strokeColor=#6c8ebf;" parent="M8WXcKTAEYLaZ2FDTzNW-1" vertex="1">
                    <mxGeometry x="-250" y="670" width="40" height="48" as="geometry"/>
                </mxCell>
                <mxCell id="UKZuX4cfnr2A_XQqYG1o-7" style="edgeStyle=orthogonalEdgeStyle;rounded=0;orthogonalLoop=1;jettySize=auto;html=1;exitX=0.5;exitY=1;exitDx=0;exitDy=0;entryX=0;entryY=0.5;entryDx=0;entryDy=0;endArrow=open;endFill=0;fontSize=12;" parent="M8WXcKTAEYLaZ2FDTzNW-1" source="UKZuX4cfnr2A_XQqYG1o-3" target="UKZuX4cfnr2A_XQqYG1o-0" edge="1">
                    <mxGeometry relative="1" as="geometry"/>
                </mxCell>
                <mxCell id="UKZuX4cfnr2A_XQqYG1o-3" value="minRev" style="rounded=0;whiteSpace=wrap;html=1;strokeWidth=2;fontSize=17;fillColor=#cce5ff;strokeColor=#36393d;" parent="M8WXcKTAEYLaZ2FDTzNW-1" vertex="1">
                    <mxGeometry x="-450" y="774" width="100" height="48" as="geometry"/>
                </mxCell>
                <mxCell id="UKZuX4cfnr2A_XQqYG1o-8" value="range" style="edgeStyle=orthogonalEdgeStyle;rounded=0;orthogonalLoop=1;jettySize=auto;html=1;exitX=0.5;exitY=0;exitDx=0;exitDy=0;entryX=0;entryY=0.5;entryDx=0;entryDy=0;endArrow=open;endFill=0;fontSize=12;" parent="M8WXcKTAEYLaZ2FDTzNW-1" source="UKZuX4cfnr2A_XQqYG1o-4" target="UKZuX4cfnr2A_XQqYG1o-0" edge="1">
                    <mxGeometry x="0.2742" relative="1" as="geometry">
                        <mxPoint as="offset"/>
                    </mxGeometry>
                </mxCell>
                <mxCell id="UKZuX4cfnr2A_XQqYG1o-4" value="curRev + 1" style="rounded=0;whiteSpace=wrap;html=1;strokeWidth=2;fontSize=17;fillColor=#cce5ff;strokeColor=#36393d;" parent="M8WXcKTAEYLaZ2FDTzNW-1" vertex="1">
                    <mxGeometry x="-450" y="866" width="100" height="48" as="geometry"/>
                </mxCell>
                <mxCell id="UKZuX4cfnr2A_XQqYG1o-9" value="" style="rounded=0;whiteSpace=wrap;html=1;strokeWidth=2;fontSize=17;fillColor=#cce5ff;strokeColor=#36393d;" parent="M8WXcKTAEYLaZ2FDTzNW-1" vertex="1">
                    <mxGeometry x="-100" y="750" width="40" height="48" as="geometry"/>
                </mxCell>
                <mxCell id="UKZuX4cfnr2A_XQqYG1o-23" style="edgeStyle=orthogonalEdgeStyle;rounded=0;orthogonalLoop=1;jettySize=auto;html=1;exitX=0.5;exitY=1;exitDx=0;exitDy=0;entryX=0;entryY=0.5;entryDx=0;entryDy=0;endArrow=open;endFill=0;fontSize=12;" parent="M8WXcKTAEYLaZ2FDTzNW-1" source="UKZuX4cfnr2A_XQqYG1o-12" target="UKZuX4cfnr2A_XQqYG1o-22" edge="1">
                    <mxGeometry relative="1" as="geometry"/>
                </mxCell>
                <mxCell id="UKZuX4cfnr2A_XQqYG1o-12" value="" style="rounded=0;whiteSpace=wrap;html=1;strokeWidth=2;fontSize=17;fillColor=#cce5ff;strokeColor=#36393d;" parent="M8WXcKTAEYLaZ2FDTzNW-1" vertex="1">
                    <mxGeometry x="-60" y="750" width="40" height="48" as="geometry"/>
                </mxCell>
                <mxCell id="UKZuX4cfnr2A_XQqYG1o-13" value="" style="rounded=0;whiteSpace=wrap;html=1;strokeWidth=2;fontSize=17;fillColor=#cce5ff;strokeColor=#36393d;" parent="M8WXcKTAEYLaZ2FDTzNW-1" vertex="1">
                    <mxGeometry x="-20" y="750" width="40" height="48" as="geometry"/>
                </mxCell>
                <mxCell id="UKZuX4cfnr2A_XQqYG1o-14" value="" style="rounded=0;whiteSpace=wrap;html=1;strokeWidth=2;fontSize=17;fillColor=#f5f5f5;strokeColor=#666666;fontColor=#333333;" parent="M8WXcKTAEYLaZ2FDTzNW-1" vertex="1">
                    <mxGeometry x="-100" y="900" width="40" height="48" as="geometry"/>
                </mxCell>
                <mxCell id="UKZuX4cfnr2A_XQqYG1o-24" style="edgeStyle=orthogonalEdgeStyle;rounded=0;orthogonalLoop=1;jettySize=auto;html=1;exitX=0.5;exitY=0;exitDx=0;exitDy=0;endArrow=open;endFill=0;fontSize=12;entryX=0;entryY=0.5;entryDx=0;entryDy=0;" parent="M8WXcKTAEYLaZ2FDTzNW-1" source="UKZuX4cfnr2A_XQqYG1o-15" target="UKZuX4cfnr2A_XQqYG1o-22" edge="1">
                    <mxGeometry relative="1" as="geometry">
                        <mxPoint x="10" y="860" as="targetPoint"/>
                    </mxGeometry>
                </mxCell>
                <mxCell id="UKZuX4cfnr2A_XQqYG1o-15" value="" style="rounded=0;whiteSpace=wrap;html=1;strokeWidth=2;fontSize=17;fillColor=#f5f5f5;strokeColor=#666666;fontColor=#333333;" parent="M8WXcKTAEYLaZ2FDTzNW-1" vertex="1">
                    <mxGeometry x="-60" y="900" width="40" height="48" as="geometry"/>
                </mxCell>
                <mxCell id="UKZuX4cfnr2A_XQqYG1o-16" value="" style="rounded=0;whiteSpace=wrap;html=1;strokeWidth=2;fontSize=17;fillColor=#f5f5f5;strokeColor=#666666;fontColor=#333333;" parent="M8WXcKTAEYLaZ2FDTzNW-1" vertex="1">
                    <mxGeometry x="-20" y="900" width="40" height="48" as="geometry"/>
                </mxCell>
                <mxCell id="UKZuX4cfnr2A_XQqYG1o-22" value="" style="rounded=0;whiteSpace=wrap;html=1;strokeWidth=2;fontSize=17;fillColor=#f5f5f5;strokeColor=#666666;fontColor=#333333;" parent="M8WXcKTAEYLaZ2FDTzNW-1" vertex="1">
                    <mxGeometry x="40" y="822" width="40" height="48" as="geometry"/>
                </mxCell>
                <mxCell id="UKZuX4cfnr2A_XQqYG1o-40" style="edgeStyle=orthogonalEdgeStyle;rounded=0;orthogonalLoop=1;jettySize=auto;html=1;exitX=0.5;exitY=0;exitDx=0;exitDy=0;entryX=0.5;entryY=1;entryDx=0;entryDy=0;endArrow=open;endFill=0;fontSize=12;" parent="M8WXcKTAEYLaZ2FDTzNW-1" source="UKZuX4cfnr2A_XQqYG1o-25" target="UKZuX4cfnr2A_XQqYG1o-36" edge="1">
                    <mxGeometry relative="1" as="geometry"/>
                </mxCell>
                <mxCell id="UKZuX4cfnr2A_XQqYG1o-25" value="" style="rounded=0;whiteSpace=wrap;html=1;strokeWidth=2;fontSize=17;fillColor=#f5f5f5;strokeColor=#666666;fontColor=#333333;" parent="M8WXcKTAEYLaZ2FDTzNW-1" vertex="1">
                    <mxGeometry x="80" y="822" width="40" height="48" as="geometry"/>
                </mxCell>
                <mxCell id="UKZuX4cfnr2A_XQqYG1o-26" value="" style="rounded=0;whiteSpace=wrap;html=1;strokeWidth=2;fontSize=17;fillColor=#f5f5f5;strokeColor=#666666;fontColor=#333333;" parent="M8WXcKTAEYLaZ2FDTzNW-1" vertex="1">
                    <mxGeometry x="120" y="822" width="40" height="48" as="geometry"/>
                </mxCell>
                <mxCell id="UKZuX4cfnr2A_XQqYG1o-31" value="value" style="text;html=1;align=center;verticalAlign=middle;resizable=0;points=[];autosize=1;fontSize=12;" parent="M8WXcKTAEYLaZ2FDTzNW-1" vertex="1">
                    <mxGeometry x="-100" y="948" width="40" height="20" as="geometry"/>
                </mxCell>
                <mxCell id="UKZuX4cfnr2A_XQqYG1o-32" value="mvccpb.Event" style="text;html=1;align=center;verticalAlign=middle;resizable=0;points=[];autosize=1;fontSize=12;" parent="M8WXcKTAEYLaZ2FDTzNW-1" vertex="1">
                    <mxGeometry x="40" y="870" width="90" height="20" as="geometry"/>
                </mxCell>
                <mxCell id="KmnDq4LYQ-1ZPicQLGQA-4" value="contain" style="edgeStyle=orthogonalEdgeStyle;rounded=0;orthogonalLoop=1;jettySize=auto;html=1;exitX=0.5;exitY=0;exitDx=0;exitDy=0;entryX=1;entryY=0.75;entryDx=0;entryDy=0;dashed=1;endArrow=open;endFill=0;fontSize=12;fillColor=#f8cecc;fontColor=#F19C99;strokeColor=#F19C99;" parent="M8WXcKTAEYLaZ2FDTzNW-1" source="UKZuX4cfnr2A_XQqYG1o-36" target="KmnDq4LYQ-1ZPicQLGQA-1" edge="1">
                    <mxGeometry relative="1" as="geometry"/>
                </mxCell>
                <mxCell id="KmnDq4LYQ-1ZPicQLGQA-5" style="edgeStyle=orthogonalEdgeStyle;rounded=0;orthogonalLoop=1;jettySize=auto;html=1;exitX=1;exitY=0.5;exitDx=0;exitDy=0;entryX=0;entryY=0.5;entryDx=0;entryDy=0;endArrow=open;endFill=0;fontSize=12;" parent="M8WXcKTAEYLaZ2FDTzNW-1" source="UKZuX4cfnr2A_XQqYG1o-36" target="aMh7HSXTOqAuA-zHOgFW-1" edge="1">
                    <mxGeometry relative="1" as="geometry"/>
                </mxCell>
                <mxCell id="UKZuX4cfnr2A_XQqYG1o-36" value="" style="rounded=0;whiteSpace=wrap;html=1;strokeWidth=2;fontSize=17;fillColor=#ffe6cc;strokeColor=#d79b00;" parent="M8WXcKTAEYLaZ2FDTzNW-1" vertex="1">
                    <mxGeometry x="80" y="694" width="40" height="48" as="geometry"/>
                </mxCell>
                <mxCell id="aMh7HSXTOqAuA-zHOgFW-0" value="" style="group" parent="M8WXcKTAEYLaZ2FDTzNW-1" vertex="1" connectable="0">
                    <mxGeometry x="240" y="684" width="208.5" height="170.19000000000005" as="geometry"/>
                </mxCell>
                <mxCell id="aMh7HSXTOqAuA-zHOgFW-1" value="" style="rounded=0;whiteSpace=wrap;html=1;strokeWidth=2;fontSize=17;fillColor=none;dashed=1;" parent="aMh7HSXTOqAuA-zHOgFW-0" vertex="1">
                    <mxGeometry x="32.5" width="176" height="68" as="geometry"/>
                </mxCell>
                <mxCell id="aMh7HSXTOqAuA-zHOgFW-2" value="ch" style="shape=partialRectangle;whiteSpace=wrap;html=1;left=0;right=0;fillColor=#e1d5e7;strokeWidth=2;fontSize=17;strokeColor=#9673a6;" parent="aMh7HSXTOqAuA-zHOgFW-0" vertex="1">
                    <mxGeometry y="138.19000000000005" width="120" height="48" as="geometry"/>
                </mxCell>
                <mxCell id="aMh7HSXTOqAuA-zHOgFW-3" value="" style="rounded=0;whiteSpace=wrap;html=1;strokeWidth=2;fontSize=17;fillColor=#fff2cc;strokeColor=#d6b656;" parent="aMh7HSXTOqAuA-zHOgFW-0" vertex="1">
                    <mxGeometry x="40" y="10" width="40" height="48" as="geometry"/>
                </mxCell>
                <mxCell id="aMh7HSXTOqAuA-zHOgFW-4" style="edgeStyle=orthogonalEdgeStyle;rounded=0;orthogonalLoop=1;jettySize=auto;html=1;exitX=0.5;exitY=0;exitDx=0;exitDy=0;entryX=0.5;entryY=1;entryDx=0;entryDy=0;endArrow=open;endFill=0;fontSize=12;" parent="aMh7HSXTOqAuA-zHOgFW-0" source="aMh7HSXTOqAuA-zHOgFW-2" target="aMh7HSXTOqAuA-zHOgFW-3" edge="1">
                    <mxGeometry relative="1" as="geometry"/>
                </mxCell>
                <mxCell id="aMh7HSXTOqAuA-zHOgFW-5" value="send" style="edgeStyle=orthogonalEdgeStyle;rounded=0;orthogonalLoop=1;jettySize=auto;html=1;exitX=0.5;exitY=1;exitDx=0;exitDy=0;entryX=1;entryY=0.5;entryDx=0;entryDy=0;dashed=1;endArrow=open;endFill=0;fontSize=12;" parent="aMh7HSXTOqAuA-zHOgFW-0" source="aMh7HSXTOqAuA-zHOgFW-6" target="aMh7HSXTOqAuA-zHOgFW-2" edge="1">
                    <mxGeometry relative="1" as="geometry"/>
                </mxCell>
                <mxCell id="aMh7HSXTOqAuA-zHOgFW-6" value="" style="rounded=0;whiteSpace=wrap;html=1;strokeWidth=2;fontSize=17;fillColor=#f8cecc;strokeColor=#b85450;" parent="aMh7HSXTOqAuA-zHOgFW-0" vertex="1">
                    <mxGeometry x="160" y="10" width="40" height="48" as="geometry"/>
                </mxCell>
                <mxCell id="aMh7HSXTOqAuA-zHOgFW-7" value="map" style="edgeStyle=orthogonalEdgeStyle;rounded=0;orthogonalLoop=1;jettySize=auto;html=1;exitX=1;exitY=0.5;exitDx=0;exitDy=0;entryX=0;entryY=0.5;entryDx=0;entryDy=0;endArrow=open;endFill=0;fontSize=12;" parent="aMh7HSXTOqAuA-zHOgFW-0" source="aMh7HSXTOqAuA-zHOgFW-3" target="aMh7HSXTOqAuA-zHOgFW-6" edge="1">
                    <mxGeometry x="0.0625" relative="1" as="geometry">
                        <mxPoint x="80" y="34" as="sourcePoint"/>
                        <mxPoint x="160" y="34" as="targetPoint"/>
                        <mxPoint as="offset"/>
                    </mxGeometry>
                </mxCell>
                <mxCell id="D6nrm1ZtkmpSKZJ1gaod-1" value="success" style="edgeStyle=orthogonalEdgeStyle;rounded=0;orthogonalLoop=1;jettySize=auto;html=1;endArrow=open;endFill=0;fontSize=12;exitX=1;exitY=0.75;exitDx=0;exitDy=0;dashed=1;strokeColor=#F19C99;fontColor=#F19C99;" parent="M8WXcKTAEYLaZ2FDTzNW-1" source="aMh7HSXTOqAuA-zHOgFW-1" edge="1">
                    <mxGeometry relative="1" as="geometry">
                        <mxPoint x="510" y="782" as="targetPoint"/>
                        <mxPoint x="480" y="872" as="sourcePoint"/>
                    </mxGeometry>
                </mxCell>
                <mxCell id="Omar38r_G6y8Ur-GSmrl-8" value="addVictim" style="edgeStyle=orthogonalEdgeStyle;rounded=0;orthogonalLoop=1;jettySize=auto;html=1;exitX=1;exitY=0.5;exitDx=0;exitDy=0;entryX=1;entryY=0.5;entryDx=0;entryDy=0;endArrow=open;endFill=0;strokeColor=#F19C99;fontSize=12;dashed=1;fontColor=#F19C99;" parent="M8WXcKTAEYLaZ2FDTzNW-1" source="D6nrm1ZtkmpSKZJ1gaod-2" target="Omar38r_G6y8Ur-GSmrl-3" edge="1">
                    <mxGeometry relative="1" as="geometry"/>
                </mxCell>
                <mxCell id="D6nrm1ZtkmpSKZJ1gaod-2" value="" style="rounded=0;whiteSpace=wrap;html=1;strokeWidth=2;fontSize=17;fillColor=#ffe6cc;strokeColor=#d79b00;" parent="M8WXcKTAEYLaZ2FDTzNW-1" vertex="1">
                    <mxGeometry x="560" y="689" width="40" height="48" as="geometry"/>
                </mxCell>
                <mxCell id="D6nrm1ZtkmpSKZJ1gaod-3" value="fail" style="edgeStyle=orthogonalEdgeStyle;rounded=0;orthogonalLoop=1;jettySize=auto;html=1;exitX=1;exitY=0.25;exitDx=0;exitDy=0;entryX=0;entryY=0.25;entryDx=0;entryDy=0;endArrow=open;endFill=0;fontSize=12;dashed=1;strokeColor=#F19C99;fontColor=#F19C99;" parent="M8WXcKTAEYLaZ2FDTzNW-1" source="aMh7HSXTOqAuA-zHOgFW-1" target="D6nrm1ZtkmpSKZJ1gaod-2" edge="1">
                    <mxGeometry relative="1" as="geometry"/>
                </mxCell>
                <mxCell id="JFOc-_IgTCYIxBAJwZdY-0" value="delete" style="edgeStyle=orthogonalEdgeStyle;rounded=0;orthogonalLoop=1;jettySize=auto;html=1;exitX=0;exitY=0.5;exitDx=0;exitDy=0;entryX=1;entryY=0.5;entryDx=0;entryDy=0;dashed=1;endArrow=open;endFill=0;fontSize=12;" parent="M8WXcKTAEYLaZ2FDTzNW-1" source="KmnDq4LYQ-1ZPicQLGQA-1" target="7RdFxD02PU-iL3NIl16g-0" edge="1">
                    <mxGeometry relative="1" as="geometry"/>
                </mxCell>
                <mxCell id="JFOc-_IgTCYIxBAJwZdY-1" value="add" style="edgeStyle=orthogonalEdgeStyle;rounded=0;orthogonalLoop=1;jettySize=auto;html=1;exitX=1;exitY=0.5;exitDx=0;exitDy=0;entryX=0;entryY=0.5;entryDx=0;entryDy=0;dashed=1;endArrow=open;endFill=0;strokeColor=#6c8ebf;fontSize=12;fillColor=#dae8fc;fontColor=#A9C4EB;" parent="M8WXcKTAEYLaZ2FDTzNW-1" source="KmnDq4LYQ-1ZPicQLGQA-1" target="7RdFxD02PU-iL3NIl16g-2" edge="1">
                    <mxGeometry relative="1" as="geometry"/>
                </mxCell>
                <mxCell id="KmnDq4LYQ-1ZPicQLGQA-1" value="" style="rounded=0;whiteSpace=wrap;html=1;strokeWidth=2;fontSize=17;fillColor=#fff2cc;strokeColor=#d6b656;" parent="M8WXcKTAEYLaZ2FDTzNW-1" vertex="1">
                    <mxGeometry x="-60" y="561" width="40" height="48" as="geometry"/>
                </mxCell>
                <mxCell id="yMIbIAN0jpMVSMUPgx9s-0" value="eventBatch" style="text;html=1;align=center;verticalAlign=middle;resizable=0;points=[];autosize=1;fontSize=12;" parent="M8WXcKTAEYLaZ2FDTzNW-1" vertex="1">
                    <mxGeometry x="-20" y="314" width="80" height="20" as="geometry"/>
                </mxCell>
                <mxCell id="yMIbIAN0jpMVSMUPgx9s-2" value="" style="rounded=0;whiteSpace=wrap;html=1;strokeWidth=2;fontSize=17;fillColor=#cce5ff;strokeColor=#36393d;" parent="M8WXcKTAEYLaZ2FDTzNW-1" vertex="1">
                    <mxGeometry x="70" y="300" width="40" height="48" as="geometry"/>
                </mxCell>
                <mxCell id="Omar38r_G6y8Ur-GSmrl-0" value="revision" style="text;html=1;align=center;verticalAlign=middle;resizable=0;points=[];autosize=1;fontSize=12;" parent="M8WXcKTAEYLaZ2FDTzNW-1" vertex="1">
                    <mxGeometry x="110" y="314" width="60" height="20" as="geometry"/>
                </mxCell>
                <mxCell id="Omar38r_G6y8Ur-GSmrl-3" value="" style="rounded=0;whiteSpace=wrap;html=1;strokeWidth=2;fontSize=17;fillColor=#ffe6cc;strokeColor=#d79b00;" parent="M8WXcKTAEYLaZ2FDTzNW-1" vertex="1">
                    <mxGeometry x="570" y="561" width="40" height="48" as="geometry"/>
                </mxCell>
                <mxCell id="Omar38r_G6y8Ur-GSmrl-4" value="" style="rounded=0;whiteSpace=wrap;html=1;strokeWidth=2;fontSize=17;fillColor=#ffe6cc;strokeColor=#d79b00;" parent="M8WXcKTAEYLaZ2FDTzNW-1" vertex="1">
                    <mxGeometry x="530" y="561" width="40" height="48" as="geometry"/>
                </mxCell>
                <mxCell id="Omar38r_G6y8Ur-GSmrl-5" value="" style="rounded=0;whiteSpace=wrap;html=1;strokeWidth=2;fontSize=17;fillColor=#ffe6cc;strokeColor=#d79b00;" parent="M8WXcKTAEYLaZ2FDTzNW-1" vertex="1">
                    <mxGeometry x="490" y="561" width="40" height="48" as="geometry"/>
                </mxCell>
                <mxCell id="mJhdzNTNCn8I7mR0zfcw-0" value="victims" style="text;html=1;align=center;verticalAlign=middle;resizable=0;points=[];autosize=1;strokeColor=none;" parent="M8WXcKTAEYLaZ2FDTzNW-1" vertex="1">
                    <mxGeometry x="490" y="541" width="50" height="20" as="geometry"/>
                </mxCell>
            </root>
        </mxGraphModel>
    </diagram>
</mxfile>